<?xml version="1.0" encoding="UTF-8" standalone="no"?>
<svg width="113px" height="108px" viewBox="0 0 113 108" version="1.1" xmlns="http://www.w3.org/2000/svg" xmlns:xlink="http://www.w3.org/1999/xlink" xmlns:sketch="http://www.bohemiancoding.com/sketch/ns">
    <!-- Generator: bin/sketchtool 1.4 (305) - http://www.bohemiancoding.com/sketch -->
    <title>Calender</title>
    <desc>Created with bin/sketchtool.</desc>
    <defs></defs>
    <g id="Page-1" stroke="none" stroke-width="1" fill="none" fill-rule="evenodd" sketch:type="MSPage">
        <g id="Desktop-HD" sketch:type="MSArtboardGroup" transform="translate(-1009.000000, -2489.000000)" fill="#3357A1">
            <g id="Services" sketch:type="MSLayerGroup" transform="translate(0.000000, 2304.000000)">
                <g id="Срок" transform="translate(980.000000, 183.000000)" sketch:type="MSShapeGroup">
                    <g id="Calender" transform="translate(29.000000, 2.000000)">
                        <path d="M0.898,16.602 L0.898,99.31 C0.898,103.72 4.488,107.31 8.898,107.31 L96.03,107.31 C100.442,107.31 104.03,103.72 104.03,99.31 L104.03,16.602 C104.03,12.192 100.442,8.602 96.03,8.602 L86.518,8.602 L18.408,8.602 L8.896,8.602 C4.488,8.602 0.898,12.192 0.898,16.602 L0.898,16.602 Z" id="Shape" fill-opacity="0.2"></path>
                        <g id="Group" transform="translate(8.000000, 0.000000)">
                            <path d="M47.698,36.158 L35.614,36.158 C35.062,36.158 34.614,36.604 34.614,37.158 L34.614,47.6 C34.614,48.154 35.062,48.6 35.614,48.6 L47.698,48.6 C48.25,48.6 48.698,48.154 48.698,47.6 L48.698,37.158 C48.698,36.602 48.25,36.158 47.698,36.158 L47.698,36.158 Z M46.698,46.598 L36.614,46.598 L36.614,38.156 L46.698,38.156 L46.698,46.598 L46.698,46.598 Z" id="Shape"></path>
                            <path d="M67.782,36.158 L55.698,36.158 C55.146,36.158 54.698,36.604 54.698,37.158 L54.698,47.6 C54.698,48.154 55.146,48.6 55.698,48.6 L67.782,48.6 C68.334,48.6 68.782,48.154 68.782,47.6 L68.782,37.158 C68.782,36.602 68.334,36.158 67.782,36.158 L67.782,36.158 Z M66.782,46.598 L56.698,46.598 L56.698,38.156 L66.782,38.156 L66.782,46.598 L66.782,46.598 Z" id="Shape"></path>
                            <path d="M87.864,36.158 L75.782,36.158 C75.23,36.158 74.782,36.604 74.782,37.158 L74.782,47.6 C74.782,48.154 75.23,48.6 75.782,48.6 L87.864,48.6 C88.416,48.6 88.864,48.154 88.864,47.6 L88.864,37.158 C88.864,36.602 88.416,36.158 87.864,36.158 L87.864,36.158 Z M86.864,46.598 L76.782,46.598 L76.782,38.156 L86.864,38.156 L86.864,46.598 L86.864,46.598 Z" id="Shape"></path>
                            <path d="M27.614,54.598 L15.532,54.598 C14.98,54.598 14.532,55.048 14.532,55.598 L14.532,66.044 C14.532,66.594 14.98,67.044 15.532,67.044 L27.614,67.044 C28.166,67.044 28.614,66.594 28.614,66.044 L28.614,55.598 C28.614,55.048 28.166,54.598 27.614,54.598 L27.614,54.598 Z M26.614,65.044 L16.532,65.044 L16.532,56.598 L26.614,56.598 L26.614,65.044 L26.614,65.044 Z" id="Shape"></path>
                            <path d="M47.698,54.598 L35.614,54.598 C35.062,54.598 34.614,55.048 34.614,55.598 L34.614,66.044 C34.614,66.594 35.062,67.044 35.614,67.044 L47.698,67.044 C48.25,67.044 48.698,66.594 48.698,66.044 L48.698,55.598 C48.698,55.048 48.25,54.598 47.698,54.598 L47.698,54.598 Z M46.698,65.044 L36.614,65.044 L36.614,56.598 L46.698,56.598 L46.698,65.044 L46.698,65.044 Z" id="Shape"></path>
                            <path d="M67.782,54.598 L55.698,54.598 C55.146,54.598 54.698,55.048 54.698,55.598 L54.698,66.044 C54.698,66.594 55.146,67.044 55.698,67.044 L67.782,67.044 C68.334,67.044 68.782,66.594 68.782,66.044 L68.782,55.598 C68.782,55.048 68.334,54.598 67.782,54.598 L67.782,54.598 Z M66.782,65.044 L56.698,65.044 L56.698,56.598 L66.782,56.598 L66.782,65.044 L66.782,65.044 Z" id="Shape"></path>
                            <path d="M87.864,54.598 L75.782,54.598 C75.23,54.598 74.782,55.048 74.782,55.598 L74.782,66.044 C74.782,66.594 75.23,67.044 75.782,67.044 L87.864,67.044 C88.416,67.044 88.864,66.594 88.864,66.044 L88.864,55.598 C88.864,55.048 88.416,54.598 87.864,54.598 L87.864,54.598 Z M86.864,65.044 L76.782,65.044 L76.782,56.598 L86.864,56.598 L86.864,65.044 L86.864,65.044 Z" id="Shape"></path>
                            <path d="M27.614,73.044 L15.532,73.044 C14.98,73.044 14.532,73.49 14.532,74.044 L14.532,84.49 C14.532,85.04 14.98,85.49 15.532,85.49 L27.614,85.49 C28.166,85.49 28.614,85.04 28.614,84.49 L28.614,74.044 C28.614,73.49 28.166,73.044 27.614,73.044 L27.614,73.044 Z M26.614,83.49 L16.532,83.49 L16.532,75.044 L26.614,75.044 L26.614,83.49 L26.614,83.49 Z" id="Shape"></path>
                            <path d="M47.698,73.044 L35.614,73.044 C35.062,73.044 34.614,73.49 34.614,74.044 L34.614,84.49 C34.614,85.04 35.062,85.49 35.614,85.49 L47.698,85.49 C48.25,85.49 48.698,85.04 48.698,84.49 L48.698,74.044 C48.698,73.49 48.25,73.044 47.698,73.044 L47.698,73.044 Z M46.698,83.49 L36.614,83.49 L36.614,75.044 L46.698,75.044 L46.698,83.49 L46.698,83.49 Z" id="Shape"></path>
                            <path d="M67.782,73.044 L55.698,73.044 C55.146,73.044 54.698,73.49 54.698,74.044 L54.698,84.49 C54.698,85.04 55.146,85.49 55.698,85.49 L67.782,85.49 C68.334,85.49 68.782,85.04 68.782,84.49 L68.782,74.044 C68.782,73.49 68.334,73.044 67.782,73.044 L67.782,73.044 Z M66.782,83.49 L56.698,83.49 L56.698,75.044 L66.782,75.044 L66.782,83.49 L66.782,83.49 Z" id="Shape"></path>
                            <path d="M21.576,10.412 C18.786,10.412 16.518,12.682 16.518,15.47 C16.518,18.258 18.788,20.524 21.576,20.524 C24.362,20.524 26.626,18.258 26.626,15.47 C26.626,12.682 24.362,10.412 21.576,10.412 L21.576,10.412 Z M21.576,18.524 C19.89,18.524 18.518,17.152 18.518,15.47 C18.518,13.788 19.892,12.412 21.576,12.412 C23.26,12.412 24.626,13.788 24.626,15.47 C24.626,17.152 23.26,18.524 21.576,18.524 L21.576,18.524 Z" id="Shape"></path>
                            <path d="M81.822,10.412 C79.034,10.412 76.768,12.682 76.768,15.47 C76.768,18.258 79.036,20.524 81.822,20.524 C84.608,20.524 86.876,18.258 86.876,15.47 C86.876,12.682 84.61,10.412 81.822,10.412 L81.822,10.412 Z M81.822,18.524 C80.138,18.524 78.768,17.152 78.768,15.47 C78.768,13.788 80.14,12.412 81.822,12.412 C83.508,12.412 84.876,13.788 84.876,15.47 C84.876,17.152 83.508,18.524 81.822,18.524 L81.822,18.524 Z" id="Shape"></path>
                            <path d="M86.52,0.602 L18.41,0.602 L8.898,0.602 C4.488,0.602 0.898,4.192 0.898,8.602 L0.898,91.31 C0.898,95.72 4.488,99.31 8.898,99.31 L96.03,99.31 C100.442,99.31 104.03,95.72 104.03,91.31 L104.03,8.602 C104.03,4.192 100.442,0.602 96.03,0.602 L86.52,0.602 L86.52,0.602 Z M96.032,94.31 L8.9,94.31 C7.246,94.31 5.9,92.962 5.9,91.31 L5.9,27.336 L99.032,27.336 L99.032,91.308 C99.032,92.962 97.686,94.31 96.032,94.31 L96.032,94.31 Z M99.032,25.336 L5.9,25.336 L5.9,8.602 C5.9,6.946 7.246,5.602 8.9,5.602 L96.032,5.602 C97.686,5.602 99.032,6.946 99.032,8.602 L99.032,25.336 L99.032,25.336 Z" id="Shape"></path>
                        </g>
                    </g>
                </g>
            </g>
        </g>
    </g>
</svg>