<?xml version="1.0" encoding="UTF-8" standalone="no"?>
<svg width="117px" height="84px" viewBox="0 0 117 84" version="1.1" xmlns="http://www.w3.org/2000/svg" xmlns:xlink="http://www.w3.org/1999/xlink" xmlns:sketch="http://www.bohemiancoding.com/sketch/ns">
    <!-- Generator: bin/sketchtool 1.4 (305) - http://www.bohemiancoding.com/sketch -->
    <title>Car Bug</title>
    <desc>Created with bin/sketchtool.</desc>
    <defs></defs>
    <g id="Page-1" stroke="none" stroke-width="1" fill="none" fill-rule="evenodd" sketch:type="MSPage">
        <g id="Desktop-HD" sketch:type="MSArtboardGroup" transform="translate(-317.000000, -2779.000000)" fill="#3357A1">
            <g id="Services" sketch:type="MSLayerGroup" transform="translate(0.000000, 2304.000000)">
                <g id="Парковка" transform="translate(290.000000, 475.000000)" sketch:type="MSShapeGroup">
                    <g id="Car-Bug" transform="translate(27.000000, 0.000000)">
                        <path d="M8.994,79.73 C10.622,83.362 17.764,83.906 21.874,83.906 C22.618,83.906 29.214,83.872 31.748,82.734 C33.546,81.926 34.572,80.028 35.158,78.174 C38.232,78.59 41.404,78.904 44.642,79.12 C45.732,80.238 47.244,80.916 48.89,80.916 L60.64,80.916 C62.29,80.916 63.8,80.238 64.888,79.12 C68.078,78.908 71.2,78.598 74.228,78.194 C74.382,78.75 74.562,79.274 74.768,79.73 C76.412,83.364 83.546,83.906 87.652,83.906 C88.396,83.906 94.992,83.872 97.526,82.734 C101.51,80.944 101.712,73.188 101.712,71.65 L101.712,70.422 C102.792,69.86 103.436,69.48 103.478,69.456 C106.608,67.588 108.876,63.884 108.876,60.644 C108.876,58.186 107.558,56.17 105.568,55.258 L105.568,51.762 C105.568,47.064 103.746,42.64 100.442,39.304 C98.734,37.58 96.686,36.228 94.434,35.33 C87.802,19.408 72.104,8.84 54.768,8.84 C37.434,8.84 21.738,19.406 15.106,35.33 C12.854,36.226 10.806,37.578 9.096,39.298 C5.788,42.648 3.968,47.072 3.968,51.76 L3.968,55.246 C3.33,55.536 2.75,55.944 2.26,56.456 C1.228,57.534 0.66,59.018 0.66,60.638 C0.66,63.888 2.938,67.59 6.074,69.438 C6.122,69.468 6.764,69.84 7.824,70.39 L7.824,71.648 C7.82,73.686 8.068,77.676 8.994,79.73 L8.994,79.73 Z" id="Shape" fill-opacity="0.2"></path>
                        <g id="Group" transform="translate(8.000000, 0.000000)">
                            <path d="M21.536,46.01 C24.322,46.01 26.586,43.742 26.586,40.956 C26.586,38.166 24.32,35.898 21.536,35.898 C18.746,35.898 16.478,38.168 16.478,40.956 C16.476,43.744 18.746,46.01 21.536,46.01 L21.536,46.01 Z M21.536,37.898 C23.218,37.898 24.586,39.27 24.586,40.956 C24.586,42.64 23.216,44.01 21.536,44.01 C19.85,44.01 18.478,42.64 18.478,40.956 C18.476,39.27 19.85,37.898 21.536,37.898 L21.536,37.898 Z" id="Shape"></path>
                            <path d="M82.942,40.956 C82.942,43.744 85.212,46.01 88,46.01 C90.786,46.01 93.05,43.742 93.05,40.956 C93.05,38.166 90.784,35.898 88,35.898 C85.21,35.898 82.942,38.166 82.942,40.956 L82.942,40.956 Z M88,37.898 C89.682,37.898 91.05,39.27 91.05,40.956 C91.05,42.64 89.68,44.01 88,44.01 C86.314,44.01 84.942,42.64 84.942,40.956 C84.942,39.27 86.314,37.898 88,37.898 L88,37.898 Z" id="Shape"></path>
                            <path d="M105.566,47.258 L105.566,43.762 C105.566,39.064 103.744,34.64 100.44,31.304 C98.732,29.58 96.684,28.228 94.432,27.33 C87.8,11.408 72.102,0.84 54.766,0.84 C37.432,0.84 21.736,11.406 15.104,27.33 C12.852,28.226 10.804,29.578 9.094,31.298 C5.786,34.648 3.966,39.072 3.966,43.76 L3.966,47.246 C3.328,47.536 2.748,47.944 2.258,48.456 C1.226,49.534 0.658,51.018 0.658,52.638 C0.658,55.888 2.936,59.59 6.072,61.438 C6.12,61.468 6.762,61.84 7.822,62.39 L7.822,63.648 C7.822,65.682 8.07,69.674 8.996,71.728 C10.624,75.36 17.766,75.904 21.876,75.904 C22.62,75.904 29.216,75.87 31.75,74.732 C33.548,73.924 34.574,72.026 35.16,70.172 C38.234,70.588 41.406,70.902 44.644,71.118 C45.734,72.236 47.246,72.914 48.892,72.914 L60.642,72.914 C62.292,72.914 63.802,72.236 64.89,71.118 C68.08,70.906 71.202,70.596 74.23,70.192 C74.384,70.748 74.564,71.272 74.77,71.728 C76.414,75.362 83.548,75.904 87.654,75.904 C88.398,75.904 94.994,75.87 97.528,74.732 C101.512,72.942 101.714,65.186 101.714,63.648 L101.714,62.42 C102.794,61.858 103.438,61.478 103.48,61.454 C106.61,59.586 108.878,55.882 108.878,52.642 C108.876,50.186 107.556,48.168 105.566,47.258 L105.566,47.258 Z M95.476,70.174 C94.796,70.48 91.49,70.906 87.652,70.906 C83.896,70.906 79.814,70.07 79.326,69.672 C79.006,68.964 78.736,67.642 78.638,66.468 C83.946,65.544 88.78,64.358 92.98,62.922 L92.98,62.922 C94.208,62.504 95.458,62 96.71,61.458 L96.71,63.65 C96.71,66.162 95.92,69.716 95.476,70.174 L95.476,70.174 Z M92.334,61.032 L92.656,61.978 L92.334,61.032 C88,62.514 82.986,63.734 77.43,64.66 C73.06,65.39 68.416,65.878 63.64,66.164 L63.64,64.918 C63.64,63.264 62.294,61.918 60.64,61.918 L48.89,61.918 C47.236,61.918 45.89,63.264 45.89,64.918 L45.89,66.164 C41.112,65.878 36.466,65.39 32.098,64.66 C26.834,63.782 22.064,62.644 17.928,61.278 L17.614,62.228 L17.926,61.278 C16.1,60.674 14.198,59.912 12.274,59.012 L12.244,58.998 C10.06,57.978 8.62,57.14 8.61,57.134 C7.038,56.206 5.656,54.106 5.656,52.64 C5.656,51.832 6.066,51.728 6.424,51.728 C6.742,51.728 7.124,51.832 7.528,52.028 L7.924,52.222 C8.862,52.712 12.606,54.6 17.322,56.036 C27.662,59.18 40.962,60.912 54.774,60.912 L54.818,60.912 C68.612,60.912 81.912,59.174 92.268,56.02 L91.976,55.062 L92.268,56.018 C97.59,54.396 101.666,52.196 101.994,52.036 L101.994,52.036 L102.004,52.032 C102.408,51.836 102.79,51.732 103.108,51.732 C103.466,51.732 103.876,51.836 103.876,52.644 C103.876,54.11 102.498,56.22 100.928,57.154 C100.914,57.162 99.484,58.006 97.29,59.028 C95.624,59.802 93.958,60.476 92.334,61.032 L92.334,61.032 Z M60.64,67.916 L48.89,67.916 C48.42,67.916 48.03,67.57 47.94,67.074 L47.89,66.792 L47.89,64.916 C47.89,64.364 48.34,63.916 48.89,63.916 L60.64,63.916 C61.182,63.916 61.64,64.374 61.64,64.916 L61.64,66.764 L61.588,67.058 L61.584,67.08 C61.498,67.566 61.104,67.916 60.64,67.916 L60.64,67.916 Z M29.7,70.174 C29.02,70.48 25.714,70.906 21.876,70.906 C18.122,70.906 14.042,70.07 13.554,69.672 C13.206,68.904 12.822,66.244 12.822,63.65 L12.822,61.426 C14.34,62.088 15.846,62.692 17.3,63.172 L17.3,63.172 C21.292,64.492 25.862,65.59 30.866,66.464 C30.674,67.916 30.078,69.868 29.7,70.174 L29.7,70.174 Z M18.416,31.494 C20.108,31.044 21.788,30.964 23.378,31.182 L23.378,31.182 C24.292,31.306 25.166,31.518 25.976,31.812 C30.444,33.424 33.616,37.346 34.25,42 C34.916,49.372 39.586,55.606 45.972,58.658 C35.592,58.09 25.846,56.536 17.904,54.12 C13.534,52.792 9.968,51.024 8.964,50.504 L8.964,43.76 C8.964,40.396 10.27,37.22 12.642,34.82 C14.226,33.226 16.218,32.074 18.404,31.494 L18.416,31.494 L18.416,31.494 Z M54.766,5.842 C70.06,5.842 83.89,15.168 89.768,29.206 C88.448,29.034 87.144,29.03 85.886,29.2 L86.02,30.192 L85.884,29.2 C84.93,29.332 84.014,29.558 83.144,29.852 C65.944,27.162 43.6,27.162 26.39,29.852 C25.524,29.558 24.608,29.332 23.654,29.2 L23.518,30.192 L23.652,29.2 C22.392,29.03 21.086,29.034 19.772,29.206 C25.646,15.166 39.474,5.842 54.766,5.842 L54.766,5.842 Z M91.13,31.498 C93.314,32.078 95.306,33.23 96.886,34.828 C99.26,37.222 100.566,40.394 100.566,43.764 L100.566,50.512 C99.554,51.034 96.022,52.786 91.686,54.108 L91.686,54.108 C83.722,56.536 73.954,58.094 63.562,58.662 C69.946,55.612 74.618,49.388 75.278,42.046 C75.912,37.348 79.084,33.428 83.554,31.814 C84.368,31.52 85.244,31.308 86.156,31.184 L86.156,31.184 C87.744,30.97 89.42,31.046 91.12,31.496 L91.13,31.498 L91.13,31.498 Z M54.77,58.676 C45.232,58.676 37.094,51.272 36.236,41.776 C35.646,37.44 33.174,33.7 29.584,31.406 C45.176,29.31 64.362,29.31 79.948,31.406 C76.356,33.702 73.884,37.448 73.294,41.82 C72.442,51.274 64.304,58.676 54.77,58.676 L54.77,58.676 Z" id="Shape"></path>
                        </g>
                    </g>
                </g>
            </g>
        </g>
    </g>
</svg>