<?xml version="1.0" encoding="UTF-8" standalone="no"?>
<svg width="118px" height="117px" viewBox="0 0 118 117" version="1.1" xmlns="http://www.w3.org/2000/svg" xmlns:xlink="http://www.w3.org/1999/xlink" xmlns:sketch="http://www.bohemiancoding.com/sketch/ns">
    <!-- Generator: bin/sketchtool 1.4 (305) - http://www.bohemiancoding.com/sketch -->
    <title>Cog</title>
    <desc>Created with bin/sketchtool.</desc>
    <defs></defs>
    <g id="Page-1" stroke="none" stroke-width="1" fill="none" fill-rule="evenodd" sketch:type="MSPage">
        <g id="Desktop-HD" sketch:type="MSArtboardGroup" transform="translate(-662.000000, -2763.000000)" fill="#3357A1">
            <g id="Services" sketch:type="MSLayerGroup" transform="translate(0.000000, 2304.000000)">
                <g id="Обслуживание" transform="translate(635.000000, 454.000000)" sketch:type="MSShapeGroup">
                    <g id="Cog" transform="translate(27.000000, 5.000000)">
                        <path d="M9.046,48.276 C4.488,48.276 0.78,51.984 0.78,56.538 L0.78,68.316 C0.78,72.872 4.488,76.58 9.046,76.58 L14.046,76.58 C14.606,78.206 15.262,79.794 16.008,81.334 L12.474,84.868 C10.918,86.42 10.058,88.496 10.056,90.708 C10.056,92.918 10.916,94.996 12.476,96.554 L20.802,104.88 C22.36,106.436 24.434,107.294 26.644,107.294 C28.852,107.294 30.926,106.436 32.484,104.88 L36.022,101.344 C37.562,102.09 39.148,102.746 40.776,103.308 L40.776,108.31 C40.776,112.866 44.482,116.574 49.038,116.574 L60.812,116.574 C65.366,116.574 69.074,112.866 69.074,108.31 L69.074,103.308 C70.7,102.748 72.288,102.092 73.828,101.346 L77.364,104.88 C78.922,106.436 80.996,107.294 83.206,107.294 C85.414,107.294 87.488,106.436 89.046,104.88 L97.376,96.554 C98.934,94.996 99.794,92.92 99.792,90.708 C99.792,88.498 98.932,86.42 97.372,84.864 L93.84,81.332 C94.588,79.792 95.244,78.208 95.804,76.58 L100.804,76.58 C105.36,76.58 109.07,72.872 109.07,68.316 L109.07,56.538 C109.07,51.984 105.362,48.276 100.804,48.276 L95.804,48.276 C95.244,46.652 94.588,45.066 93.842,43.524 L97.378,39.988 C98.934,38.434 99.792,36.358 99.792,34.146 C99.792,31.936 98.934,29.86 97.374,28.304 L89.048,19.978 C87.488,18.42 85.414,17.564 83.206,17.564 C80.998,17.564 78.922,18.42 77.366,19.976 L73.832,23.512 C72.29,22.764 70.704,22.108 69.074,21.548 L69.074,16.546 C69.074,11.99 65.366,8.282 60.812,8.282 L49.038,8.282 C44.482,8.282 40.776,11.99 40.776,16.546 L40.776,21.546 C39.148,22.108 37.558,22.764 36.018,23.512 L32.486,19.978 C30.926,18.42 28.852,17.564 26.644,17.564 C24.436,17.564 22.36,18.42 20.804,19.976 L12.474,28.304 C10.916,29.86 10.056,31.936 10.056,34.146 C10.056,36.356 10.916,38.434 12.476,39.99 L16.006,43.524 C15.26,45.064 14.606,46.65 14.046,48.276 L9.046,48.276 L9.046,48.276 Z" id="Shape" fill-opacity="0.2"></path>
                        <g id="Trash" transform="translate(8.000000, 0.000000)">
                            <path d="M54.926,49.674 C52.304,49.674 50.172,51.806 50.172,54.428 C50.172,57.05 52.304,59.182 54.926,59.182 C57.548,59.182 59.68,57.05 59.68,54.428 C59.68,51.806 57.546,49.674 54.926,49.674 L54.926,49.674 Z M54.926,57.182 C53.406,57.182 52.172,55.948 52.172,54.428 C52.172,52.91 53.406,51.674 54.926,51.674 C56.444,51.674 57.68,52.91 57.68,54.428 C57.68,55.948 56.444,57.182 54.926,57.182 L54.926,57.182 Z" id="Shape"></path>
                            <path d="M100.804,40.276 L95.804,40.276 C95.244,38.652 94.588,37.066 93.842,35.524 L97.378,31.988 C98.934,30.434 99.792,28.358 99.792,26.146 C99.792,23.936 98.934,21.86 97.374,20.304 L89.048,11.978 C87.488,10.42 85.414,9.564 83.206,9.564 C80.998,9.564 78.922,10.42 77.366,11.976 L73.832,15.512 C72.29,14.764 70.704,14.108 69.074,13.548 L69.074,8.546 C69.074,3.99 65.366,0.282 60.812,0.282 L49.038,0.282 C44.482,0.282 40.776,3.99 40.776,8.546 L40.776,13.546 C39.148,14.108 37.558,14.764 36.018,15.512 L32.486,11.978 C30.926,10.42 28.852,9.564 26.644,9.564 C24.436,9.564 22.36,10.42 20.804,11.976 L12.474,20.304 C10.916,21.86 10.056,23.936 10.056,26.146 C10.056,28.356 10.916,30.434 12.476,31.99 L16.006,35.524 C15.26,37.064 14.606,38.65 14.046,40.276 L9.046,40.276 C4.488,40.276 0.78,43.984 0.78,48.538 L0.78,60.316 C0.78,64.872 4.488,68.58 9.046,68.58 L14.046,68.58 C14.606,70.206 15.262,71.794 16.008,73.334 L12.474,76.868 C10.918,78.42 10.058,80.496 10.056,82.708 C10.056,84.918 10.916,86.996 12.476,88.554 L20.802,96.88 C22.36,98.436 24.434,99.294 26.644,99.294 C28.852,99.294 30.926,98.436 32.484,96.88 L36.022,93.344 C37.562,94.09 39.148,94.746 40.776,95.308 L40.776,100.31 C40.776,104.866 44.482,108.574 49.038,108.574 L60.812,108.574 C65.366,108.574 69.074,104.866 69.074,100.31 L69.074,95.308 C70.7,94.748 72.288,94.092 73.828,93.346 L77.364,96.88 C78.922,98.436 80.996,99.294 83.206,99.294 C85.414,99.294 87.488,98.436 89.046,96.88 L97.376,88.554 C98.934,86.996 99.794,84.92 99.792,82.708 C99.792,80.498 98.932,78.42 97.372,76.864 L93.84,73.332 C94.588,71.792 95.244,70.208 95.804,68.58 L100.804,68.58 C105.36,68.58 109.07,64.872 109.07,60.316 L109.07,48.538 C109.07,43.984 105.362,40.276 100.804,40.276 L100.804,40.276 Z M100.804,63.58 L92.846,63.58 C92.392,63.58 91.996,63.884 91.88,64.322 C91.008,67.582 89.722,70.694 88.056,73.566 C87.828,73.958 87.894,74.456 88.214,74.774 L93.838,80.402 C94.452,81.014 94.79,81.832 94.79,82.704 C94.79,83.58 94.452,84.4 93.838,85.012 L85.51,93.338 C84.284,94.564 82.124,94.564 80.896,93.338 L75.272,87.714 C74.952,87.394 74.456,87.328 74.064,87.556 C71.188,89.222 68.078,90.51 64.816,91.38 C64.378,91.496 64.074,91.892 64.074,92.344 L64.074,100.304 C64.074,102.104 62.612,103.568 60.812,103.568 L49.038,103.568 C47.24,103.568 45.776,102.106 45.776,100.304 L45.776,92.346 C45.776,91.892 45.472,91.498 45.034,91.382 C41.772,90.508 38.66,89.222 35.784,87.556 C35.628,87.466 35.456,87.422 35.284,87.422 C35.024,87.422 34.768,87.524 34.576,87.714 L28.952,93.338 C27.726,94.564 25.566,94.564 24.338,93.338 L16.01,85.012 C15.394,84.398 15.056,83.578 15.056,82.704 C15.056,81.83 15.394,81.012 16.01,80.4 L21.634,74.776 C21.954,74.456 22.018,73.96 21.792,73.568 C20.124,70.694 18.838,67.584 17.966,64.322 C17.85,63.884 17.454,63.58 17.002,63.58 L9.044,63.58 C7.244,63.58 5.778,62.118 5.778,60.316 L5.778,48.538 C5.778,46.74 7.242,45.276 9.044,45.276 L17.002,45.276 C17.456,45.276 17.852,44.972 17.966,44.534 C18.838,41.276 20.122,38.164 21.788,35.288 C22.014,34.896 21.95,34.4 21.63,34.08 L16.008,28.456 C15.392,27.842 15.054,27.024 15.054,26.148 C15.054,25.274 15.392,24.456 16.008,23.842 L24.336,15.516 C25.562,14.29 27.722,14.29 28.95,15.516 L34.572,21.14 C34.892,21.462 35.388,21.526 35.78,21.298 C38.656,19.632 41.768,18.344 45.034,17.472 C45.472,17.354 45.776,16.958 45.776,16.506 L45.776,8.548 C45.776,6.75 47.238,5.284 49.038,5.284 L60.812,5.284 C62.61,5.284 64.074,6.748 64.074,8.548 L64.074,16.506 C64.074,16.96 64.378,17.356 64.816,17.472 C68.078,18.344 71.192,19.628 74.068,21.296 C74.46,21.524 74.956,21.46 75.276,21.138 L80.898,15.514 C82.124,14.288 84.284,14.288 85.512,15.514 L93.84,23.842 C94.454,24.454 94.792,25.274 94.792,26.146 C94.792,27.022 94.454,27.84 93.84,28.454 L88.218,34.078 C87.898,34.398 87.832,34.894 88.06,35.286 C89.726,38.166 91.012,41.278 91.88,44.532 C91.998,44.97 92.394,45.274 92.846,45.274 L100.804,45.274 C102.604,45.274 104.07,46.736 104.07,48.536 L104.07,60.314 C104.07,62.116 102.606,63.58 100.804,63.58 L100.804,63.58 Z" id="Shape"></path>
                        </g>
                    </g>
                </g>
            </g>
        </g>
    </g>
</svg>