<?xml version="1.0" encoding="UTF-8" standalone="no"?>
<svg width="84px" height="121px" viewBox="0 0 84 121" version="1.1" xmlns="http://www.w3.org/2000/svg" xmlns:xlink="http://www.w3.org/1999/xlink" xmlns:sketch="http://www.bohemiancoding.com/sketch/ns">
    <!-- Generator: bin/sketchtool 1.4 (305) - http://www.bohemiancoding.com/sketch -->
    <title>Lightbulb</title>
    <desc>Created with bin/sketchtool.</desc>
    <defs></defs>
    <g id="Page-1" stroke="none" stroke-width="1" fill="none" fill-rule="evenodd" sketch:type="MSPage">
        <g id="Desktop-HD" sketch:type="MSArtboardGroup" transform="translate(-333.000000, -2482.000000)" fill="#3357A1">
            <g id="Services" sketch:type="MSLayerGroup" transform="translate(0.000000, 2304.000000)">
                <g id="Помещения" transform="translate(290.000000, 178.000000)" sketch:type="MSShapeGroup">
                    <g id="Lightbulb" transform="translate(43.000000, 0.000000)">
                        <path d="M38.01,8.796 L37.994,8.796 C17.3,8.832 0.462,23.976 0.462,42.554 C0.462,58.39 8.286,73.41 15.032,83.414 L18.274,97.308 C18.274,97.456 18.282,97.608 18.298,97.762 C18.348,98.254 18.49,98.716 18.7,99.138 L20.594,107.244 C22.268,114.436 29.368,120.072 36.758,120.072 L39.73,120.072 C47.14,120.072 54.196,114.408 55.796,107.174 L57.1,101.272 C57.19,101.002 57.25,100.726 57.286,100.444 L59.286,91.402 L61.058,83.39 C67.768,73.39 75.542,58.382 75.542,42.558 C75.544,23.976 58.708,8.832 38.01,8.796 L38.01,8.796 Z" id="Shape" fill-opacity="0.2"></path>
                        <path d="M45.994,0.796 C25.3,0.832 8.462,15.976 8.462,34.554 C8.462,50.39 16.286,65.41 23.032,75.414 L26.274,89.308 C26.274,89.456 26.282,89.608 26.298,89.762 C26.348,90.254 26.49,90.716 26.7,91.138 L28.594,99.244 C30.268,106.436 37.368,112.072 44.758,112.072 L47.73,112.072 C55.14,112.072 62.196,106.408 63.796,99.174 L65.1,93.272 C65.19,93.002 65.25,92.726 65.286,92.444 L67.286,83.402 L69.058,75.39 C75.768,65.39 83.542,50.382 83.542,34.558 C83.542,15.98 66.706,0.836 46.006,0.8 C46.01,0.796 46.002,0.796 45.994,0.796 L45.994,0.796 Z M47.732,107.07 L44.76,107.07 C39.744,107.07 34.756,103.144 33.524,98.28 C43.77,97.968 54.002,96.202 59.87,93.788 L58.916,98.088 C57.82,103.042 52.804,107.07 47.732,107.07 L47.732,107.07 Z M31.646,90.32 C44.056,90.164 56.302,87.878 61.846,84.852 L60.408,91.352 C55.148,93.97 43.91,96.004 33.04,96.298 L31.646,90.32 L31.646,90.32 Z M28.224,75.66 C30.796,76.696 36.076,78.078 46.006,78.078 C56.006,78.078 61.314,76.676 63.882,75.636 L62.474,82.008 C59.384,84.976 46.1,88.2 31.182,88.328 L28.224,75.66 L28.224,75.66 Z M64.594,73.07 C63.896,73.524 59.37,76.078 46.006,76.078 C32.582,76.078 28.13,73.5 27.49,73.078 C22.204,65.324 13.462,50.136 13.462,34.554 C13.462,18.726 28.06,5.824 46.002,5.792 C63.948,5.824 78.544,18.726 78.544,34.554 C78.544,50.136 69.852,65.316 64.594,73.07 L64.594,73.07 Z" id="Shape"></path>
                    </g>
                </g>
            </g>
        </g>
    </g>
</svg>