<?xml version="1.0" encoding="UTF-8" standalone="no"?>
<svg width="118px" height="118px" viewBox="0 0 118 118" version="1.1" xmlns="http://www.w3.org/2000/svg" xmlns:xlink="http://www.w3.org/1999/xlink" xmlns:sketch="http://www.bohemiancoding.com/sketch/ns">
    <!-- Generator: bin/sketchtool 1.4 (305) - http://www.bohemiancoding.com/sketch -->
    <title>Map Three</title>
    <desc>Created with bin/sketchtool.</desc>
    <defs></defs>
    <g id="Page-1" stroke="none" stroke-width="1" fill="none" fill-rule="evenodd" sketch:type="MSPage">
        <g id="Desktop-HD" sketch:type="MSArtboardGroup" transform="translate(-662.000000, -2762.000000)" fill="#3357A1">
            <g id="Services" sketch:type="MSLayerGroup" transform="translate(0.000000, 2304.000000)">
                <g id="Обслуживание" transform="translate(635.000000, 454.000000)" sketch:type="MSShapeGroup">
                    <g id="Map-Three" transform="translate(27.000000, 4.000000)">
                        <path d="M2.43,111.538 C3.142,112.1 4.018,112.398 4.906,112.398 C5.218,112.398 5.53,112.362 5.84,112.288 L38.208,104.52 L70.628,117.424 C71.1,117.614 71.602,117.708 72.106,117.708 C72.418,117.708 72.732,117.67 73.04,117.598 L106.642,109.536 C108.44,109.104 109.708,107.494 109.708,105.646 L109.708,17.722 C109.708,16.498 109.148,15.34 108.184,14.582 C107.472,14.02 106.598,13.722 105.708,13.722 C105.398,13.722 105.084,13.76 104.774,13.834 L72.406,21.6 L39.988,8.694 C39.514,8.506 39.012,8.41 38.508,8.41 C38.196,8.41 37.884,8.448 37.574,8.522 L3.972,16.586 C2.174,17.018 0.906,18.626 0.906,20.474 L0.906,108.396 C0.906,109.622 1.468,110.78 2.43,111.538 L2.43,111.538 Z" id="Shape" fill-opacity="0.2"></path>
                        <g id="Group" transform="translate(8.000000, 0.000000)">
                            <path d="M108.184,6.58 C107.472,6.018 106.598,5.72 105.708,5.72 C105.398,5.72 105.084,5.758 104.774,5.832 L72.406,13.6 L39.988,0.694 C39.514,0.506 39.012,0.41 38.508,0.41 C38.196,0.41 37.884,0.448 37.574,0.522 L3.972,8.586 C2.174,9.018 0.906,10.626 0.906,12.474 L0.906,100.396 C0.906,101.62 1.468,102.778 2.43,103.536 C3.142,104.098 4.018,104.396 4.906,104.396 C5.218,104.396 5.53,104.36 5.84,104.286 L38.208,96.518 L70.628,109.422 C71.1,109.612 71.602,109.706 72.106,109.706 C72.418,109.706 72.732,109.668 73.04,109.596 L106.642,101.534 C108.44,101.102 109.708,99.492 109.708,97.644 L109.708,9.72 C109.708,8.496 109.146,7.338 108.184,6.58 L108.184,6.58 Z M37.508,5.68 L37.508,41.388 L37.032,40.61 C35.904,41.302 34.752,41.906 33.616,42.408 L34.422,44.238 C35.45,43.784 36.484,43.236 37.508,42.636 L37.508,73.04 C31.236,69.772 24.178,67.906 16.804,67.906 C13.102,67.906 9.454,68.364 5.906,69.244 L5.906,39.05 C6.27,39.362 6.672,39.698 7.132,40.058 L8.362,38.48 C7.168,37.55 6.354,36.78 5.904,36.334 L5.904,13.264 L37.508,5.68 L37.508,5.68 Z M5.906,99.128 L5.906,71.298 C9.448,70.376 13.1,69.906 16.804,69.906 C24.208,69.906 31.292,71.852 37.508,75.28 L37.508,91.546 L5.906,99.128 L5.906,99.128 Z M39.508,76.48 C47.746,81.612 54.22,89.434 57.526,98.828 L39.508,91.656 L39.508,76.48 L39.508,76.48 Z M71.106,104.232 L59.972,99.8 C56.592,88.838 49.114,79.768 39.51,74.138 L39.51,5.884 L71.132,18.472 L71.132,27.994 C70.844,27.938 70.566,27.864 70.276,27.816 L69.96,29.79 C70.356,29.852 70.742,29.948 71.132,30.032 L71.132,104.082 L71.108,104.082 L71.108,104.232 L71.106,104.232 Z M104.708,96.858 L73.13,104.434 L73.13,30.578 C73.3,30.634 73.478,30.676 73.646,30.736 L74.326,28.856 C73.938,28.716 73.532,28.608 73.13,28.488 L73.13,18.568 L104.708,10.99 L104.708,96.858 L104.708,96.858 Z" id="Shape"></path>
                            <path d="M30.506,45.618 L29.994,43.684 C28.75,44.014 27.482,44.236 26.228,44.346 L26.402,46.338 C27.77,46.218 29.15,45.974 30.506,45.618 L30.506,45.618 Z" id="Shape"></path>
                            <path d="M15.002,42.436 C13.842,41.938 12.684,41.346 11.56,40.674 L10.532,42.39 C11.734,43.106 12.97,43.74 14.212,44.272 L15.002,42.436 L15.002,42.436 Z" id="Shape"></path>
                            <path d="M22.412,44.344 C21.16,44.232 19.89,44.012 18.638,43.688 L18.136,45.624 C19.494,45.978 20.872,46.216 22.236,46.336 L22.412,44.344 L22.412,44.344 Z" id="Shape"></path>
                            <path d="M86.228,40.028 C85.616,38.742 84.916,37.532 84.14,36.43 L82.504,37.578 C83.214,38.588 83.86,39.702 84.422,40.884 L86.228,40.028 L86.228,40.028 Z" id="Shape"></path>
                            <path d="M40.982,37.772 C40.726,37.982 40.472,38.188 40.216,38.388 L41.446,39.964 C41.716,39.756 41.984,39.538 42.252,39.318 C43.016,38.69 43.79,38.088 44.57,37.516 L43.388,35.902 C42.58,36.494 41.776,37.12 40.982,37.772 L40.982,37.772 Z" id="Shape"></path>
                            <path d="M87.518,56.024 L89.518,55.986 C89.492,54.59 89.416,53.222 89.292,51.92 L87.302,52.11 C87.42,53.362 87.492,54.678 87.518,56.024 L87.518,56.024 Z" id="Shape"></path>
                            <path d="M86.756,48.246 L88.72,47.87 C88.456,46.486 88.122,45.142 87.726,43.88 L85.818,44.478 C86.192,45.668 86.506,46.936 86.756,48.246 L86.756,48.246 Z" id="Shape"></path>
                            <path d="M81.422,33.25 C80.402,32.278 79.286,31.412 78.102,30.68 L77.05,32.382 C78.116,33.04 79.122,33.82 80.04,34.696 L81.422,33.25 L81.422,33.25 Z" id="Shape"></path>
                            <path d="M54.076,29.96 L54.802,31.824 C56.028,31.348 57.272,30.934 58.498,30.6 L57.97,28.67 C56.678,29.024 55.368,29.458 54.076,29.96 L54.076,29.96 Z" id="Shape"></path>
                            <path d="M62.002,27.822 L62.292,29.8 C63.598,29.608 64.892,29.508 66.138,29.504 L66.128,27.504 C64.788,27.51 63.4,27.618 62.002,27.822 L62.002,27.822 Z" id="Shape"></path>
                            <path d="M46.774,33.622 L47.822,35.326 C48.946,34.634 50.096,33.992 51.236,33.418 L50.338,31.63 C49.144,32.228 47.946,32.898 46.774,33.622 L46.774,33.622 Z" id="Shape"></path>
                            <path d="M84.068,60.504 L82.654,61.918 L87.238,66.502 L82.654,71.088 L84.068,72.502 L88.652,67.916 L93.238,72.502 L94.652,71.088 L90.066,66.502 L94.652,61.918 L93.238,60.504 L88.652,65.088 L84.068,60.504 Z" id="Shape"></path>
                        </g>
                    </g>
                </g>
            </g>
        </g>
    </g>
</svg>