<?xml version="1.0" encoding="UTF-8" standalone="no"?>
<svg width="120px" height="93px" viewBox="0 0 120 93" version="1.1" xmlns="http://www.w3.org/2000/svg" xmlns:xlink="http://www.w3.org/1999/xlink" xmlns:sketch="http://www.bohemiancoding.com/sketch/ns">
    <!-- Generator: bin/sketchtool 1.4 (305) - http://www.bohemiancoding.com/sketch -->
    <title>Money</title>
    <desc>Created with bin/sketchtool.</desc>
    <defs></defs>
    <g id="Page-1" stroke="none" stroke-width="1" fill="none" fill-rule="evenodd" sketch:type="MSPage">
        <g id="Desktop-HD" sketch:type="MSArtboardGroup" transform="translate(-659.000000, -2496.000000)" fill="#3357A1">
            <g id="Services" sketch:type="MSLayerGroup" transform="translate(0.000000, 2304.000000)">
                <g id="Система-скидок" transform="translate(635.000000, 192.000000)" sketch:type="MSShapeGroup">
                    <g id="Money" transform="translate(24.000000, 0.000000)">
                        <path d="M29.844,92.836 L30,92.836 C30.25,92.836 30.496,92.832 30.746,92.828 C45.538,92.566 54.058,87.614 54.41,87.402 C56.304,86.278 59.402,84.434 61.296,83.304 C61.354,83.272 68.82,79.008 81.672,79.008 C94.496,79.008 101.976,83.258 102.044,83.3 C103.22,84.004 104.434,84.358 105.658,84.358 C109.06,84.358 111.534,81.65 111.534,77.92 L111.534,40.416 L111.534,19.146 C111.534,16.118 108.916,9.002 84.702,8.278 C83.706,8.246 82.694,8.236 81.67,8.232 C66.462,8.232 57.568,13.436 57.198,13.658 C55.308,14.786 52.222,16.626 50.334,17.744 C50.276,17.776 42.72,22.064 29.858,22.064 C17.014,22.064 9.542,17.794 9.472,17.752 C8.308,17.056 7.096,16.706 5.878,16.706 C2.476,16.706 0.002,19.414 0.002,23.148 L0.002,53.996 L0.002,81.922 C-1.13686838e-13,92.312 24.86,92.836 29.844,92.836 L29.844,92.836 Z" id="Shape" fill-opacity="0.2"></path>
                        <g id="Group" transform="translate(8.000000, 0.000000)">
                            <path d="M29.844,84.836 L30,84.836 C30.25,84.836 30.496,84.832 30.746,84.828 C45.538,84.566 54.058,79.614 54.41,79.402 C56.304,78.278 59.402,76.434 61.296,75.304 C61.354,75.272 68.82,71.008 81.672,71.008 C94.496,71.008 101.976,75.258 102.044,75.3 C103.22,76.004 104.434,76.358 105.658,76.358 C109.06,76.358 111.534,73.65 111.534,69.92 L111.534,32.416 L111.534,11.146 C111.534,8.118 108.916,1.002 84.702,0.278 C83.706,0.246 82.694,0.236 81.67,0.232 C66.462,0.232 57.568,5.436 57.198,5.658 C55.308,6.786 52.222,8.626 50.334,9.744 C50.276,9.776 42.72,14.064 29.858,14.064 C17.014,14.064 9.542,9.794 9.472,9.752 C8.308,9.056 7.096,8.706 5.878,8.706 C2.476,8.706 0.002,11.414 0.002,15.148 L0.002,45.996 L0.002,73.922 C0,84.312 24.86,84.836 29.844,84.836 L29.844,84.836 Z M81.668,5.234 C82.644,5.234 83.606,5.25 84.55,5.276 C98.702,5.702 106.53,9.014 106.53,11.148 L106.53,69.922 C106.53,70.434 106.42,70.852 106.226,71.102 C106.086,71.278 105.902,71.36 105.656,71.36 C105.446,71.36 105.098,71.302 104.61,71.008 C104.27,70.804 96.07,66.008 81.672,66.008 C67.278,66.008 59.074,70.808 58.734,71.012 C56.844,72.14 53.75,73.98 51.862,75.098 C51.784,75.144 44.092,79.59 30.64,79.828 L29.844,79.836 C14.454,79.836 5,76.39 5,73.922 L5,15.148 C5,14.608 5.114,13.706 5.876,13.706 C6.086,13.706 6.438,13.764 6.922,14.054 C7.262,14.258 15.468,19.066 29.856,19.066 C44.254,19.066 52.536,14.25 52.884,14.046 C54.774,12.924 57.868,11.086 59.76,9.952 C59.836,9.906 67.82,5.234 81.668,5.234 L81.668,5.234 Z" id="Shape"></path>
                            <path d="M50.11,34.274 C50.11,40.454 60.57,43.156 60.57,48.79 C60.57,51.88 58.948,54.158 55.706,54.158 C53.468,54.158 51.538,52.536 50.842,49.872 L48.256,50.724 C49.064,54.04 51.654,55.974 54.392,56.396 L54.396,59.06 L57.096,59.06 L57.096,56.356 C60.568,55.742 63.276,52.692 63.276,48.79 C63.276,41.688 52.772,38.56 52.772,34.274 C52.772,32.5 53.972,31.11 55.744,31.11 C56.9,31.11 57.752,31.88 58.368,32.844 L60.606,31.262 C59.794,29.95 58.484,29.18 57.094,28.872 L57.094,26.012 L54.39,26.012 L54.39,28.872 C52,29.45 50.11,31.496 50.11,34.274 L50.11,34.274 Z" id="Shape"></path>
                        </g>
                    </g>
                </g>
            </g>
        </g>
    </g>
</svg>