<?xml version="1.0" encoding="UTF-8" standalone="no"?>
<svg width="90px" height="116px" viewBox="0 0 90 116" version="1.1" xmlns="http://www.w3.org/2000/svg" xmlns:xlink="http://www.w3.org/1999/xlink" xmlns:sketch="http://www.bohemiancoding.com/sketch/ns">
    <!-- Generator: bin/sketchtool 1.4 (305) - http://www.bohemiancoding.com/sketch -->
    <title>Ribbon Star</title>
    <desc>Created with bin/sketchtool.</desc>
    <defs></defs>
    <g id="Page-1" stroke="none" stroke-width="1" fill="none" fill-rule="evenodd" sketch:type="MSPage">
        <g id="Desktop-HD" sketch:type="MSArtboardGroup" transform="translate(-1021.000000, -2765.000000)" fill="#3357A1">
            <g id="Services" sketch:type="MSLayerGroup" transform="translate(0.000000, 2304.000000)">
                <g id="Вывеска" transform="translate(980.000000, 458.000000)" sketch:type="MSShapeGroup">
                    <g id="Ribbon-Star" transform="translate(41.000000, 3.000000)">
                        <path d="M9.684,114.552 L39.184,98.396 C39.458,98.246 40.052,98.096 40.766,98.096 L40.77,98.096 C41.484,98.096 42.082,98.246 42.356,98.396 L71.852,114.552 C72.974,115.166 74.13,115.478 75.282,115.478 C78.758,115.478 81.282,112.74 81.282,108.966 L81.282,76.47 L81.282,68.47 L81.282,39.094 L81.282,31.094 L81.282,16.536 C81.282,12.124 77.692,8.536 73.282,8.536 L8.254,8.536 C3.84,8.536 0.254,12.124 0.254,16.536 L0.254,108.966 C0.254,112.74 2.778,115.478 6.25,115.478 C7.406,115.478 8.558,115.166 9.684,114.552 L9.684,114.552 Z" id="Shape" fill-opacity="0.2"></path>
                        <g id="Group" transform="translate(8.000000, 0.000000)">
                            <path d="M59.024,39.588 L47.61,37.93 L42.504,27.59 C41.714,25.984 39.82,25.986 39.032,27.588 L33.926,37.93 L22.508,39.588 C21.626,39.718 20.992,40.18 20.774,40.852 C20.556,41.526 20.794,42.27 21.434,42.894 L29.7,50.944 L27.746,62.312 C27.59,63.222 27.868,63.78 28.124,64.09 C28.664,64.73 29.608,64.856 30.558,64.356 L40.768,58.988 L50.978,64.358 C51.372,64.564 51.76,64.668 52.122,64.668 C52.638,64.668 53.09,64.462 53.404,64.092 C53.666,63.786 53.944,63.226 53.786,62.314 L51.836,50.944 L60.094,42.894 C60.734,42.272 60.976,41.528 60.758,40.854 C60.542,40.18 59.91,39.72 59.024,39.588 L59.024,39.588 Z M50.066,49.882 C49.832,50.11 49.722,50.442 49.776,50.766 L51.796,62.528 L41.234,56.974 C41.086,56.898 40.93,56.86 40.77,56.86 C40.61,56.86 40.45,56.898 40.302,56.974 L29.74,62.528 L31.76,50.766 C31.814,50.442 31.71,50.11 31.47,49.882 L22.92,41.552 L34.732,39.834 C35.06,39.788 35.342,39.584 35.486,39.288 L40.772,28.59 L46.05,39.288 C46.194,39.582 46.476,39.788 46.804,39.834 L58.616,41.55 L50.066,49.882 L50.066,49.882 Z" id="Shape"></path>
                            <path d="M73.282,0.536 L8.254,0.536 C3.84,0.536 0.254,4.124 0.254,8.536 L0.254,100.966 C0.254,104.74 2.778,107.478 6.25,107.478 C7.406,107.478 8.558,107.166 9.684,106.552 L39.184,90.396 C39.458,90.246 40.052,90.096 40.766,90.096 L40.77,90.096 C41.484,90.096 42.082,90.246 42.356,90.396 L71.852,106.552 C72.974,107.166 74.13,107.478 75.282,107.478 C78.758,107.478 81.282,104.74 81.282,100.966 L81.282,68.47 L81.282,60.47 L81.282,31.094 L81.282,23.094 L81.282,8.536 C81.282,4.124 77.692,0.536 73.282,0.536 L73.282,0.536 Z M76.282,100.966 C76.282,101.42 76.184,102.478 75.282,102.478 C74.982,102.478 74.626,102.37 74.254,102.166 L44.758,86.01 C42.598,84.83 38.934,84.83 36.782,86.01 L7.282,102.166 C6.552,102.564 5.914,102.592 5.582,102.184 C5.372,101.924 5.254,101.49 5.254,100.968 L5.254,8.538 C5.254,6.882 6.598,5.538 8.254,5.538 L73.282,5.538 C74.934,5.538 76.282,6.882 76.282,8.538 L76.282,100.966 L76.282,100.966 Z" id="Shape"></path>
                        </g>
                    </g>
                </g>
            </g>
        </g>
    </g>
</svg>