<?xml version="1.0" encoding="UTF-8" standalone="no"?>
<svg width="860px" height="252px" viewBox="0 0 860 252" version="1.1" xmlns="http://www.w3.org/2000/svg" xmlns:xlink="http://www.w3.org/1999/xlink" xmlns:sketch="http://www.bohemiancoding.com/sketch/ns">
    <!-- Generator: bin/sketchtool 1.4 (305) - http://www.bohemiancoding.com/sketch -->
    <title>Outlines</title>
    <desc>Created with bin/sketchtool.</desc>
    <defs></defs>
    <g id="Page-1" stroke="none" stroke-width="1" fill="none" fill-rule="evenodd" sketch:type="MSPage">
        <g id="Desktop-HD" sketch:type="MSArtboardGroup" transform="translate(-290.000000, -1212.000000)">
            <g id="About" sketch:type="MSLayerGroup" transform="translate(0.000000, 768.000000)">
                <g id="Outlines" transform="translate(290.000000, 444.000000)" sketch:type="MSShapeGroup">
                    <rect id="Rectangle-46" stroke="#FFFFFF" stroke-width="3" x="0" y="43" width="343" height="209" rx="2"></rect>
                    <rect id="Rectangle-46" stroke="#FFFFFF" stroke-width="3" x="340" y="0" width="63" height="252" rx="2"></rect>
                    <rect id="Rectangle-46-Copy-3" stroke="#FFFFFF" stroke-width="2" x="387" y="0" width="15" height="252" rx="2"></rect>
                    <rect id="Rectangle-46-Copy" stroke="#FFFFFF" stroke-width="3" x="400" y="20" width="150" height="232" rx="2"></rect>
                    <rect id="Rectangle-46-Copy-6" stroke="#FFFFFF" x="400" y="183" width="150" height="2" rx="2"></rect>
                    <rect id="Rectangle-46-Copy-45" stroke="#FFFFFF" stroke-width="5" x="400" y="217" width="150" height="2" rx="2"></rect>
                    <rect id="Rectangle-46-Copy-2" stroke="#FFFFFF" stroke-width="3" x="547" y="177" width="313" height="75" rx="2"></rect>
                    <rect id="Rectangle-46-Copy-7" stroke="#FFFFFF" stroke-width="2" x="468" y="225" width="15" height="27" rx="2"></rect>
                    <rect id="Rectangle-46-Copy-50" stroke="#FFFFFF" stroke-width="2" x="576" y="227" width="15" height="25" rx="2"></rect>
                    <rect id="Rectangle-46-Copy-52" stroke="#FFFFFF" stroke-width="2" x="741" y="224" width="15" height="28" rx="2"></rect>
                    <rect id="Rectangle-46-Copy-54" stroke="#FFFFFF" stroke-width="2" x="616" y="224" width="15" height="28" rx="2"></rect>
                    <rect id="Rectangle-46-Copy-56" stroke="#FFFFFF" stroke-width="2" x="820" y="224" width="15" height="28" rx="2"></rect>
                    <rect id="Rectangle-46-Copy-46" stroke="#FFFFFF" stroke-width="2" x="12" y="222" width="15" height="30" rx="2"></rect>
                    <rect id="Rectangle-46-Copy-48" stroke="#FFFFFF" stroke-width="2" x="73" y="223" width="15" height="28" rx="2"></rect>
                    <rect id="Rectangle-46-Copy-20" stroke="#FFFFFF" x="468" y="225" width="8" height="27" rx="2"></rect>
                    <rect id="Rectangle-46-Copy-51" stroke="#FFFFFF" x="576" y="227" width="8" height="25" rx="2"></rect>
                    <rect id="Rectangle-46-Copy-53" stroke="#FFFFFF" x="741" y="224" width="8" height="28" rx="2"></rect>
                    <rect id="Rectangle-46-Copy-55" stroke="#FFFFFF" x="616" y="224" width="8" height="28" rx="2"></rect>
                    <rect id="Rectangle-46-Copy-57" stroke="#FFFFFF" x="820" y="224" width="8" height="28" rx="2"></rect>
                    <rect id="Rectangle-46-Copy-47" stroke="#FFFFFF" x="12" y="222" width="8" height="30" rx="2"></rect>
                    <rect id="Rectangle-46-Copy-49" stroke="#FFFFFF" x="73" y="223" width="8" height="29" rx="2"></rect>
                    <rect id="Rectangle-46-Copy-58" stroke="#FFFFFF" stroke-width="2" x="557" y="223" width="10" height="21" rx="2"></rect>
                    <rect id="Rectangle-46-Copy-14" stroke="#FFFFFF" stroke-width="2" x="521" y="191" width="12" height="22" rx="2"></rect>
                    <rect id="Rectangle-46-Copy-19" stroke="#FFFFFF" stroke-width="2" x="521" y="155" width="12" height="22" rx="2"></rect>
                    <rect id="Rectangle-46-Copy-25" stroke="#FFFFFF" stroke-width="2" x="522" y="123" width="12" height="22" rx="2"></rect>
                    <rect id="Rectangle-46-Copy-30" stroke="#FFFFFF" stroke-width="2" x="522" y="91" width="12" height="22" rx="2"></rect>
                    <rect id="Rectangle-46-Copy-35" stroke="#FFFFFF" stroke-width="2" x="522" y="59" width="12" height="22" rx="2"></rect>
                    <rect id="Rectangle-46-Copy-40" stroke="#FFFFFF" stroke-width="2" x="522" y="37" width="12" height="12" rx="2"></rect>
                    <rect id="Rectangle-46-Copy-15" stroke="#FFFFFF" stroke-width="2" x="495" y="191" width="12" height="22" rx="2"></rect>
                    <rect id="Rectangle-46-Copy-21" stroke="#FFFFFF" stroke-width="2" x="495" y="155" width="12" height="22" rx="2"></rect>
                    <rect id="Rectangle-46-Copy-26" stroke="#FFFFFF" stroke-width="2" x="496" y="123" width="12" height="22" rx="2"></rect>
                    <rect id="Rectangle-46-Copy-31" stroke="#FFFFFF" stroke-width="2" x="496" y="91" width="12" height="22" rx="2"></rect>
                    <rect id="Rectangle-46-Copy-36" stroke="#FFFFFF" stroke-width="2" x="496" y="59" width="12" height="22" rx="2"></rect>
                    <rect id="Rectangle-46-Copy-41" stroke="#FFFFFF" stroke-width="2" x="496" y="37" width="12" height="12" rx="2"></rect>
                    <rect id="Rectangle-46-Copy-16" stroke="#FFFFFF" stroke-width="2" x="469" y="191" width="12" height="22" rx="2"></rect>
                    <rect id="Rectangle-46-Copy-22" stroke="#FFFFFF" stroke-width="2" x="469" y="155" width="12" height="22" rx="2"></rect>
                    <rect id="Rectangle-46-Copy-27" stroke="#FFFFFF" stroke-width="2" x="470" y="123" width="12" height="22" rx="2"></rect>
                    <rect id="Rectangle-46-Copy-32" stroke="#FFFFFF" stroke-width="2" x="470" y="91" width="12" height="22" rx="2"></rect>
                    <rect id="Rectangle-46-Copy-37" stroke="#FFFFFF" stroke-width="2" x="470" y="59" width="12" height="22" rx="2"></rect>
                    <rect id="Rectangle-46-Copy-42" stroke="#FFFFFF" stroke-width="2" x="470" y="37" width="12" height="12" rx="2"></rect>
                    <rect id="Rectangle-46-Copy-17" stroke="#FFFFFF" stroke-width="2" x="443" y="191" width="12" height="22" rx="2"></rect>
                    <rect id="Rectangle-46-Copy-67" stroke="#FFFFFF" stroke-width="2" x="412" y="224" width="9" height="19" rx="2"></rect>
                    <rect id="Rectangle-46-Copy-70" stroke="#FFFFFF" stroke-width="2" x="493" y="224" width="9" height="19" rx="2"></rect>
                    <rect id="Rectangle-46-Copy-68" stroke="#FFFFFF" stroke-width="2" x="430" y="224" width="9" height="19" rx="2"></rect>
                    <rect id="Rectangle-46-Copy-71" stroke="#FFFFFF" stroke-width="2" x="511" y="224" width="9" height="19" rx="2"></rect>
                    <rect id="Rectangle-46-Copy-69" stroke="#FFFFFF" stroke-width="2" x="448" y="224" width="9" height="19" rx="2"></rect>
                    <rect id="Rectangle-46-Copy-72" stroke="#FFFFFF" stroke-width="2" x="529" y="224" width="9" height="19" rx="2"></rect>
                    <rect id="Rectangle-46-Copy-23" stroke="#FFFFFF" stroke-width="2" x="443" y="155" width="12" height="22" rx="2"></rect>
                    <rect id="Rectangle-46-Copy-28" stroke="#FFFFFF" stroke-width="2" x="444" y="123" width="12" height="22" rx="2"></rect>
                    <rect id="Rectangle-46-Copy-33" stroke="#FFFFFF" stroke-width="2" x="444" y="91" width="12" height="22" rx="2"></rect>
                    <rect id="Rectangle-46-Copy-38" stroke="#FFFFFF" stroke-width="2" x="444" y="59" width="12" height="22" rx="2"></rect>
                    <rect id="Rectangle-46-Copy-43" stroke="#FFFFFF" stroke-width="2" x="444" y="37" width="12" height="12" rx="2"></rect>
                    <rect id="Rectangle-46-Copy-18" stroke="#FFFFFF" stroke-width="2" x="417" y="191" width="12" height="22" rx="2"></rect>
                    <rect id="Rectangle-46-Copy-24" stroke="#FFFFFF" stroke-width="2" x="417" y="155" width="12" height="22" rx="2"></rect>
                    <rect id="Rectangle-46-Copy-29" stroke="#FFFFFF" stroke-width="2" x="418" y="123" width="12" height="22" rx="2"></rect>
                    <rect id="Rectangle-46-Copy-34" stroke="#FFFFFF" stroke-width="2" x="418" y="91" width="12" height="22" rx="2"></rect>
                    <rect id="Rectangle-46-Copy-39" stroke="#FFFFFF" stroke-width="2" x="418" y="59" width="12" height="22" rx="2"></rect>
                    <rect id="Rectangle-46-Copy-44" stroke="#FFFFFF" stroke-width="2" x="418" y="37" width="12" height="12" rx="2"></rect>
                    <path d="M598.5,179.5 L598.5,249.5" id="Line" stroke="#FFFFFF" stroke-width="3" stroke-linecap="square"></path>
                    <rect id="Rectangle-106" fill="#FFFFFF" x="521" y="197" width="12" height="1" rx="2"></rect>
                    <rect id="Rectangle-106-Copy" fill="#FFFFFF" x="495" y="197" width="12" height="1" rx="2"></rect>
                    <rect id="Rectangle-106-Copy-2" fill="#FFFFFF" x="469" y="197" width="12" height="1" rx="2"></rect>
                    <rect id="Rectangle-106-Copy-3" fill="#FFFFFF" x="443" y="197" width="12" height="1" rx="2"></rect>
                    <rect id="Rectangle-106-Copy-32" fill="#FFFFFF" x="411.5" y="230" width="9.5" height="1" rx="2"></rect>
                    <rect id="Rectangle-106-Copy-35" fill="#FFFFFF" x="492.5" y="230" width="9.5" height="1" rx="2"></rect>
                    <rect id="Rectangle-106-Copy-33" fill="#FFFFFF" x="429.5" y="230" width="9.5" height="1" rx="2"></rect>
                    <rect id="Rectangle-106-Copy-36" fill="#FFFFFF" x="510.5" y="230" width="9.5" height="1" rx="2"></rect>
                    <rect id="Rectangle-106-Copy-37" fill="#FFFFFF" x="528.5" y="230" width="9.5" height="1" rx="2"></rect>
                    <rect id="Rectangle-106-Copy-34" fill="#FFFFFF" x="448" y="230" width="9.5" height="1" rx="2"></rect>
                    <rect id="Rectangle-106-Copy-4" fill="#FFFFFF" x="417" y="197" width="12" height="1" rx="2"></rect>
                    <rect id="Rectangle-106-Copy-5" fill="#FFFFFF" x="417" y="161" width="12" height="1" rx="2"></rect>
                    <rect id="Rectangle-106-Copy-6" fill="#FFFFFF" x="443" y="161" width="12" height="1" rx="2"></rect>
                    <rect id="Rectangle-106-Copy-7" fill="#FFFFFF" x="469" y="161" width="12" height="1" rx="2"></rect>
                    <rect id="Rectangle-106-Copy-8" fill="#FFFFFF" x="495" y="161" width="12" height="1" rx="2"></rect>
                    <rect id="Rectangle-106-Copy-9" fill="#FFFFFF" x="521" y="161" width="12" height="1" rx="2"></rect>
                    <rect id="Rectangle-106-Copy-10" fill="#FFFFFF" x="522" y="129" width="12" height="1" rx="2"></rect>
                    <rect id="Rectangle-106-Copy-11" fill="#FFFFFF" x="496" y="129" width="12" height="1" rx="2"></rect>
                    <rect id="Rectangle-106-Copy-12" fill="#FFFFFF" x="470" y="129" width="12" height="1" rx="2"></rect>
                    <rect id="Rectangle-106-Copy-13" fill="#FFFFFF" x="444" y="129" width="12" height="1" rx="2"></rect>
                    <rect id="Rectangle-106-Copy-14" fill="#FFFFFF" x="418" y="129" width="12" height="1" rx="2"></rect>
                    <rect id="Rectangle-106-Copy-15" fill="#FFFFFF" x="418" y="97" width="12" height="1" rx="2"></rect>
                    <rect id="Rectangle-106-Copy-16" fill="#FFFFFF" x="444" y="97" width="12" height="1" rx="2"></rect>
                    <rect id="Rectangle-106-Copy-17" fill="#FFFFFF" x="470" y="97" width="12" height="1" rx="2"></rect>
                    <rect id="Rectangle-106-Copy-18" fill="#FFFFFF" x="496" y="97" width="12" height="1" rx="2"></rect>
                    <rect id="Rectangle-106-Copy-19" fill="#FFFFFF" x="522" y="97" width="12" height="1" rx="2"></rect>
                    <rect id="Rectangle-106-Copy-20" fill="#FFFFFF" x="522" y="65" width="12" height="1" rx="2"></rect>
                    <rect id="Rectangle-106-Copy-21" fill="#FFFFFF" x="496" y="65" width="12" height="1" rx="2"></rect>
                    <rect id="Rectangle-106-Copy-22" fill="#FFFFFF" x="470" y="65" width="12" height="1" rx="2"></rect>
                    <rect id="Rectangle-106-Copy-23" fill="#FFFFFF" x="444" y="65" width="12" height="1" rx="2"></rect>
                    <rect id="Rectangle-106-Copy-24" fill="#FFFFFF" x="418" y="65" width="12" height="1" rx="2"></rect>
                    <rect id="Rectangle-106-Copy-25" fill="#FFFFFF" x="418" y="41" width="12" height="1" rx="2"></rect>
                    <rect id="Rectangle-106-Copy-26" fill="#FFFFFF" x="444" y="41" width="12" height="1" rx="2"></rect>
                    <rect id="Rectangle-106-Copy-27" fill="#FFFFFF" x="470" y="41" width="12" height="1" rx="2"></rect>
                    <rect id="Rectangle-106-Copy-28" fill="#FFFFFF" x="496" y="41" width="12" height="1" rx="2"></rect>
                    <rect id="Rectangle-106-Copy-29" fill="#FFFFFF" x="522" y="41" width="12" height="1" rx="2"></rect>
                    <rect id="Rectangle-106-Copy-40" fill="#FFFFFF" x="599" y="242" width="14" height="1" rx="2"></rect>
                    <rect id="Rectangle-106-Copy-41" fill="#FFFFFF" x="634" y="242" width="104" height="1" rx="2"></rect>
                    <rect id="Rectangle-106-Copy-42" fill="#FFFFFF" x="759" y="242" width="58" height="1" rx="2"></rect>
                    <rect id="Rectangle-106-Copy-43" fill="#FFFFFF" x="838" y="242" width="20" height="1" rx="2"></rect>
                    <rect id="Rectangle-106-Copy-50" fill="#FFFFFF" x="612" y="219" width="23" height="1" rx="2"></rect>
                    <rect id="Rectangle-106-Copy-53" fill="#FFFFFF" x="737" y="220" width="23" height="1" rx="2"></rect>
                    <rect id="Rectangle-106-Copy-57" fill="#FFFFFF" x="816" y="220" width="23" height="1" rx="2"></rect>
                    <path d="M612.5,243 C612.223858,243 612,242.713749 612,242.358058 L612,219.641942 C612,219.287407 612.231934,219 612.5,219 L612.5,219 C612.776142,219 613,219.286251 613,219.641942 L613,242.358058 C613,242.712593 612.768066,243 612.5,243 L612.5,243 L612.5,243 Z" id="Rectangle-106-Copy-51" fill="#FFFFFF"></path>
                    <path d="M737.5,243 C737.223858,243 737,242.725676 737,242.384806 L737,220.615194 C737,220.275432 737.231934,220 737.5,220 L737.5,220 C737.776142,220 738,220.274324 738,220.615194 L738,242.384806 C738,242.724568 737.768066,243 737.5,243 L737.5,243 L737.5,243 Z" id="Rectangle-106-Copy-55" fill="#FFFFFF"></path>
                    <path d="M816.5,243 C816.223858,243 816,242.725676 816,242.384806 L816,220.615194 C816,220.275432 816.231934,220 816.5,220 L816.5,220 C816.776142,220 817,220.274324 817,220.615194 L817,242.384806 C817,242.724568 816.768066,243 816.5,243 L816.5,243 L816.5,243 Z" id="Rectangle-106-Copy-58" fill="#FFFFFF"></path>
                    <path d="M634.5,243 C634.223858,243 634,242.713749 634,242.358058 L634,219.641942 C634,219.287407 634.231934,219 634.5,219 L634.5,219 C634.776142,219 635,219.286251 635,219.641942 L635,242.358058 C635,242.712593 634.768066,243 634.5,243 L634.5,243 L634.5,243 Z" id="Rectangle-106-Copy-52" fill="#FFFFFF"></path>
                    <path d="M759.5,243 C759.223858,243 759,242.725676 759,242.384806 L759,220.615194 C759,220.275432 759.231934,220 759.5,220 L759.5,220 C759.776142,220 760,220.274324 760,220.615194 L760,242.384806 C760,242.724568 759.768066,243 759.5,243 L759.5,243 L759.5,243 Z" id="Rectangle-106-Copy-56" fill="#FFFFFF"></path>
                    <path d="M838.5,243 C838.223858,243 838,242.725676 838,242.384806 L838,220.615194 C838,220.275432 838.231934,220 838.5,220 L838.5,220 C838.776142,220 839,220.274324 839,220.615194 L839,242.384806 C839,242.724568 838.768066,243 838.5,243 L838.5,243 L838.5,243 Z" id="Rectangle-106-Copy-59" fill="#FFFFFF"></path>
                    <path d="M555,194.999615 C555,193.895258 555.895858,193 556.997392,193 L562.002608,193 C563.105737,193 564,193.896098 564,194.998006 L564,199.009699 L564,200.398622 L564,201.000257 C564,202.104684 563.104142,203 562.002608,203 L556.997392,203 C555.894263,203 555,202.112567 555,201.000385 L555,194.999615 Z" id="Rectangle-147" stroke="#FFFFFF" stroke-width="2"></path>
                    <path d="M569,194.999615 C569,193.895258 569.895858,193 570.997392,193 L576.002608,193 C577.105737,193 578,193.896098 578,194.998006 L578,199.009699 L578,200.398622 L578,201.000257 C578,202.104684 577.104142,203 576.002608,203 L570.997392,203 C569.894263,203 569,202.112567 569,201.000385 L569,194.999615 Z" id="Rectangle-147-Copy" stroke="#FFFFFF" stroke-width="2"></path>
                    <path d="M583,194.999615 C583,193.895258 583.895858,193 584.997392,193 L590.002608,193 C591.105737,193 592,193.896098 592,194.998006 L592,199.009699 L592,200.398622 L592,201.000257 C592,202.104684 591.104142,203 590.002608,203 L584.997392,203 C583.894263,203 583,202.112567 583,201.000385 L583,194.999615 Z" id="Rectangle-147-Copy-2" stroke="#FFFFFF" stroke-width="2"></path>
                    <path d="M645,224.005859 C645,222.898054 645.893543,222 647.00276,222 L655.99724,222 C657.103334,222 658,222.905403 658,223.99568 L658,230.413578 L658,232.358071 L658,233.996904 C658,235.103183 657.106457,236 655.99724,236 L647.00276,236 C645.896666,236 645,235.10294 645,233.994141 L645,224.005859 Z" id="Rectangle-147-Copy-3" stroke="#FFFFFF" stroke-width="2"></path>
                    <path d="M645,195.005859 C645,193.898054 645.893543,193 647.00276,193 L655.99724,193 C657.103334,193 658,193.905403 658,194.99568 L658,201.413578 L658,203.358071 L658,204.996904 C658,206.103183 657.106457,207 655.99724,207 L647.00276,207 C645.896666,207 645,206.10294 645,204.994141 L645,195.005859 Z" id="Rectangle-147-Copy-7" stroke="#FFFFFF" stroke-width="2"></path>
                    <path d="M616,195.005859 C616,193.898054 616.893543,193 618.00276,193 L626.99724,193 C628.103334,193 629,193.905403 629,194.99568 L629,201.413578 L629,203.358071 L629,204.996904 C629,206.103183 628.106457,207 626.99724,207 L618.00276,207 C616.896666,207 616,206.10294 616,204.994141 L616,195.005859 Z" id="Rectangle-147-Copy-11" stroke="#FFFFFF" stroke-width="2"></path>
                    <path d="M668,224.005859 C668,222.898054 668.893543,222 670.00276,222 L678.99724,222 C680.103334,222 681,222.905403 681,223.99568 L681,230.413578 L681,232.358071 L681,233.996904 C681,235.103183 680.106457,236 678.99724,236 L670.00276,236 C668.896666,236 668,235.10294 668,233.994141 L668,224.005859 Z" id="Rectangle-147-Copy-4" stroke="#FFFFFF" stroke-width="2"></path>
                    <path d="M770,224.005859 C770,222.898054 770.893543,222 772.00276,222 L780.99724,222 C782.103334,222 783,222.905403 783,223.99568 L783,230.413578 L783,232.358071 L783,233.996904 C783,235.103183 782.106457,236 780.99724,236 L772.00276,236 C770.896666,236 770,235.10294 770,233.994141 L770,224.005859 Z" id="Rectangle-147-Copy-13" stroke="#FFFFFF" stroke-width="2"></path>
                    <path d="M668,195.005859 C668,193.898054 668.893543,193 670.00276,193 L678.99724,193 C680.103334,193 681,193.905403 681,194.99568 L681,201.413578 L681,203.358071 L681,204.996904 C681,206.103183 680.106457,207 678.99724,207 L670.00276,207 C668.896666,207 668,206.10294 668,204.994141 L668,195.005859 Z" id="Rectangle-147-Copy-8" stroke="#FFFFFF" stroke-width="2"></path>
                    <path d="M770,195.005859 C770,193.898054 770.893543,193 772.00276,193 L780.99724,193 C782.103334,193 783,193.905403 783,194.99568 L783,201.413578 L783,203.358071 L783,204.996904 C783,206.103183 782.106457,207 780.99724,207 L772.00276,207 C770.896666,207 770,206.10294 770,204.994141 L770,195.005859 Z" id="Rectangle-147-Copy-14" stroke="#FFFFFF" stroke-width="2"></path>
                    <path d="M691,224.005859 C691,222.898054 691.893543,222 693.00276,222 L701.99724,222 C703.103334,222 704,222.905403 704,223.99568 L704,230.413578 L704,232.358071 L704,233.996904 C704,235.103183 703.106457,236 701.99724,236 L693.00276,236 C691.896666,236 691,235.10294 691,233.994141 L691,224.005859 Z" id="Rectangle-147-Copy-5" stroke="#FFFFFF" stroke-width="2"></path>
                    <path d="M793,224.005859 C793,222.898054 793.893543,222 795.00276,222 L803.99724,222 C805.103334,222 806,222.905403 806,223.99568 L806,230.413578 L806,232.358071 L806,233.996904 C806,235.103183 805.106457,236 803.99724,236 L795.00276,236 C793.896666,236 793,235.10294 793,233.994141 L793,224.005859 Z" id="Rectangle-147-Copy-15" stroke="#FFFFFF" stroke-width="2"></path>
                    <path d="M691,195.005859 C691,193.898054 691.893543,193 693.00276,193 L701.99724,193 C703.103334,193 704,193.905403 704,194.99568 L704,201.413578 L704,203.358071 L704,204.996904 C704,206.103183 703.106457,207 701.99724,207 L693.00276,207 C691.896666,207 691,206.10294 691,204.994141 L691,195.005859 Z" id="Rectangle-147-Copy-9" stroke="#FFFFFF" stroke-width="2"></path>
                    <path d="M793,195.005859 C793,193.898054 793.893543,193 795.00276,193 L803.99724,193 C805.103334,193 806,193.905403 806,194.99568 L806,201.413578 L806,203.358071 L806,204.996904 C806,206.103183 805.106457,207 803.99724,207 L795.00276,207 C793.896666,207 793,206.10294 793,204.994141 L793,195.005859 Z" id="Rectangle-147-Copy-16" stroke="#FFFFFF" stroke-width="2"></path>
                    <path d="M820,195.005859 C820,193.898054 820.893543,193 822.00276,193 L830.99724,193 C832.103334,193 833,193.905403 833,194.99568 L833,201.413578 L833,203.358071 L833,204.996904 C833,206.103183 832.106457,207 830.99724,207 L822.00276,207 C820.896666,207 820,206.10294 820,204.994141 L820,195.005859 Z" id="Rectangle-147-Copy-17" stroke="#FFFFFF" stroke-width="2"></path>
                    <path d="M714,224.005859 C714,222.898054 714.893543,222 716.00276,222 L724.99724,222 C726.103334,222 727,222.905403 727,223.99568 L727,230.413578 L727,232.358071 L727,233.996904 C727,235.103183 726.106457,236 724.99724,236 L716.00276,236 C714.896666,236 714,235.10294 714,233.994141 L714,224.005859 Z" id="Rectangle-147-Copy-6" stroke="#FFFFFF" stroke-width="2"></path>
                    <path d="M714,195.005859 C714,193.898054 714.893543,193 716.00276,193 L724.99724,193 C726.103334,193 727,193.905403 727,194.99568 L727,201.413578 L727,203.358071 L727,204.996904 C727,206.103183 726.106457,207 724.99724,207 L716.00276,207 C714.896666,207 714,206.10294 714,204.994141 L714,195.005859 Z" id="Rectangle-147-Copy-10" stroke="#FFFFFF" stroke-width="2"></path>
                    <path d="M741,195.005859 C741,193.898054 741.893543,193 743.00276,193 L751.99724,193 C753.103334,193 754,193.905403 754,194.99568 L754,201.413578 L754,203.358071 L754,204.996904 C754,206.103183 753.106457,207 751.99724,207 L743.00276,207 C741.896666,207 741,206.10294 741,204.994141 L741,195.005859 Z" id="Rectangle-147-Copy-12" stroke="#FFFFFF" stroke-width="2"></path>
                    <rect id="Rectangle-273" fill="#FFFFFF" x="651" y="222" width="1" height="14" rx="1"></rect>
                    <rect id="Rectangle-273-Copy-4" fill="#FFFFFF" x="651" y="193" width="1" height="14" rx="1"></rect>
                    <rect id="Rectangle-273-Copy-8" fill="#FFFFFF" x="622" y="193" width="1" height="14" rx="1"></rect>
                    <rect id="Rectangle-273-Copy" fill="#FFFFFF" x="674" y="222" width="1" height="14" rx="1"></rect>
                    <rect id="Rectangle-273-Copy-10" fill="#FFFFFF" x="776" y="222" width="1" height="14" rx="1"></rect>
                    <rect id="Rectangle-273-Copy-5" fill="#FFFFFF" x="674" y="193" width="1" height="14" rx="1"></rect>
                    <rect id="Rectangle-273-Copy-11" fill="#FFFFFF" x="776" y="193" width="1" height="14" rx="1"></rect>
                    <rect id="Rectangle-273-Copy-2" fill="#FFFFFF" x="697" y="222" width="1" height="14" rx="1"></rect>
                    <rect id="Rectangle-273-Copy-12" fill="#FFFFFF" x="799" y="222" width="1" height="14" rx="1"></rect>
                    <rect id="Rectangle-273-Copy-6" fill="#FFFFFF" x="697" y="193" width="1" height="14" rx="1"></rect>
                    <rect id="Rectangle-273-Copy-13" fill="#FFFFFF" x="799" y="193" width="1" height="14" rx="1"></rect>
                    <rect id="Rectangle-273-Copy-14" fill="#FFFFFF" x="826" y="193" width="1" height="14" rx="1"></rect>
                    <rect id="Rectangle-273-Copy-3" fill="#FFFFFF" x="720" y="222" width="1" height="14" rx="1"></rect>
                    <rect id="Rectangle-273-Copy-7" fill="#FFFFFF" x="720" y="193" width="1" height="14" rx="1"></rect>
                    <rect id="Rectangle-273-Copy-9" fill="#FFFFFF" x="747" y="193" width="1" height="14" rx="1"></rect>
                    <g id="1" transform="translate(8.000000, 209.000000)" fill="#FFFFFF">
                        <rect id="Rectangle-165-Copy-14" transform="translate(209.000000, 13.500000) scale(1, -1) translate(-209.000000, -13.500000) " x="83" y="12.75" width="252" height="1.5" rx="2"></rect>
                        <rect id="Rectangle-165-Copy-52" transform="translate(42.000000, 13.500000) scale(1, -1) translate(-42.000000, -13.500000) " x="22" y="12.75" width="40" height="1.5" rx="2"></rect>
                        <path d="M83,26 C83,25.4477153 83.4432769,25 84.0021872,25 L333.997813,25 C334.551305,25 335,25.4438648 335,26 L335,26 C335,26.5522847 334.551582,27 333.991201,27 L155.574412,27 L83.9973316,27 C83.4465206,27 83,26.5561352 83,26 L83,26 Z" id="Rectangle-165-Copy-32" transform="translate(209.000000, 26.000000) scale(1, -1) translate(-209.000000, -26.000000) "></path>
                        <rect id="Rectangle-165-Copy-31" transform="translate(167.500000, 1.000000) scale(1, -1) translate(-167.500000, -1.000000) " x="0" y="0" width="335" height="2" rx="2"></rect>
                        <rect id="Rectangle-165-Copy" x="48" y="0" width="1" height="27" rx="2"></rect>
                        <rect id="Rectangle-165-Copy-15" x="35" y="0" width="1" height="27" rx="2"></rect>
                        <rect id="Rectangle-165-Copy-27" x="22" y="0" width="1" height="41" rx="2"></rect>
                        <rect id="Rectangle-165-Copy-29" x="83" y="1" width="1" height="42" rx="2"></rect>
                        <path d="M0,0.503599608 C0,0.225469225 0.231933594,0 0.5,0 L0.5,0 C0.776142375,0 1,0.221729578 1,0.503280541 L1,0.902675753 L1,40.5015101 C1,40.7768185 0.768066406,41 0.5,41 L0.5,41 C0.223857625,41 0,40.7794088 0,40.4964004 L0,0.503599608 Z" id="Rectangle-165-Copy-28"></path>
                        <rect id="Rectangle-165-Copy-30" x="61" y="0" width="1" height="43" rx="2"></rect>
                        <rect id="Rectangle-165-Copy-3" x="96" y="0" width="1" height="27" rx="2"></rect>
                        <rect id="Rectangle-165-Copy-33" x="109" y="0" width="1" height="27" rx="2"></rect>
                        <rect id="Rectangle-165-Copy-34" x="122" y="0" width="1" height="27" rx="2"></rect>
                        <rect id="Rectangle-165-Copy-35" x="135" y="0" width="1" height="27" rx="2"></rect>
                        <rect id="Rectangle-165-Copy-36" x="148" y="0" width="1" height="27" rx="2"></rect>
                        <rect id="Rectangle-165-Copy-37" x="161" y="0" width="1" height="27" rx="2"></rect>
                        <rect id="Rectangle-165-Copy-38" x="174" y="0" width="1" height="27" rx="2"></rect>
                        <rect id="Rectangle-165-Copy-39" x="187" y="0" width="1" height="27" rx="2"></rect>
                        <rect id="Rectangle-165-Copy-40" x="200" y="0" width="1" height="27" rx="2"></rect>
                        <rect id="Rectangle-165-Copy-41" x="213" y="0" width="1" height="27" rx="2"></rect>
                        <rect id="Rectangle-165-Copy-42" x="226" y="0" width="1" height="27" rx="2"></rect>
                        <rect id="Rectangle-165-Copy-43" x="239" y="0" width="1" height="27" rx="2"></rect>
                        <rect id="Rectangle-165-Copy-44" x="252" y="0" width="1" height="27" rx="2"></rect>
                        <rect id="Rectangle-165-Copy-45" x="265" y="0" width="1" height="27" rx="2"></rect>
                        <rect id="Rectangle-165-Copy-46" x="278" y="0" width="1" height="27" rx="2"></rect>
                        <rect id="Rectangle-165-Copy-47" x="291" y="0" width="1" height="27" rx="2"></rect>
                        <rect id="Rectangle-165-Copy-48" x="304" y="0" width="1" height="27" rx="2"></rect>
                        <rect id="Rectangle-165-Copy-49" x="317" y="0" width="1" height="27" rx="2"></rect>
                        <rect id="Rectangle-106-Copy-54" x="22" y="25" width="40" height="2" rx="2"></rect>
                    </g>
                    <g id="1-copy" transform="translate(0.000000, 164.000000)">
                        <rect id="Rectangle-165" fill="#FFFFFF" x="29" y="0" width="1" height="24" rx="2"></rect>
                        <rect id="Rectangle-165-Copy-13" fill="#FFFFFF" x="16" y="0" width="1" height="24" rx="2"></rect>
                        <rect id="Rectangle-164" stroke="#FFFFFF" stroke-width="2" x="2" y="0" width="340" height="24"></rect>
                        <rect id="Rectangle-165-Copy-51" fill="#FFFFFF" transform="translate(172.000000, 11.500000) scale(1, -1) translate(-172.000000, -11.500000) " x="1" y="11" width="342" height="1" rx="2"></rect>
                        <rect id="Rectangle-165-Copy" fill="#FFFFFF" x="55" y="0" width="1" height="24" rx="2"></rect>
                        <rect id="Rectangle-165-Copy-15" fill="#FFFFFF" x="42" y="0" width="1" height="24" rx="2"></rect>
                        <rect id="Rectangle-165-Copy-2" fill="#FFFFFF" x="81" y="0" width="1" height="24" rx="2"></rect>
                        <rect id="Rectangle-165-Copy-16" fill="#FFFFFF" x="68" y="0" width="1" height="24" rx="2"></rect>
                        <rect id="Rectangle-165-Copy-3" fill="#FFFFFF" x="107" y="0" width="1" height="24" rx="2"></rect>
                        <rect id="Rectangle-165-Copy-17" fill="#FFFFFF" x="94" y="0" width="1" height="24" rx="2"></rect>
                        <rect id="Rectangle-165-Copy-4" fill="#FFFFFF" x="133" y="0" width="1" height="24" rx="2"></rect>
                        <rect id="Rectangle-165-Copy-18" fill="#FFFFFF" x="120" y="0" width="1" height="24" rx="2"></rect>
                        <rect id="Rectangle-165-Copy-5" fill="#FFFFFF" x="159" y="0" width="1" height="24" rx="2"></rect>
                        <rect id="Rectangle-165-Copy-19" fill="#FFFFFF" x="146" y="0" width="1" height="24" rx="2"></rect>
                        <rect id="Rectangle-165-Copy-6" fill="#FFFFFF" x="186" y="0" width="1" height="24" rx="2"></rect>
                        <rect id="Rectangle-165-Copy-20" fill="#FFFFFF" x="173" y="0" width="1" height="24" rx="2"></rect>
                        <rect id="Rectangle-165-Copy-7" fill="#FFFFFF" x="212" y="0" width="1" height="24" rx="2"></rect>
                        <rect id="Rectangle-165-Copy-22" fill="#FFFFFF" x="225" y="0" width="1" height="24" rx="2"></rect>
                        <rect id="Rectangle-165-Copy-21" fill="#FFFFFF" x="199" y="0" width="1" height="24" rx="2"></rect>
                        <rect id="Rectangle-165-Copy-8" fill="#FFFFFF" x="238" y="0" width="1" height="24" rx="2"></rect>
                        <rect id="Rectangle-165-Copy-23" fill="#FFFFFF" x="251" y="0" width="1" height="24" rx="2"></rect>
                        <rect id="Rectangle-165-Copy-9" fill="#FFFFFF" x="264" y="0" width="1" height="24" rx="2"></rect>
                        <rect id="Rectangle-165-Copy-24" fill="#FFFFFF" x="277" y="0" width="1" height="24" rx="2"></rect>
                        <rect id="Rectangle-165-Copy-10" fill="#FFFFFF" x="290" y="0" width="1" height="24" rx="2"></rect>
                        <rect id="Rectangle-165-Copy-25" fill="#FFFFFF" x="303" y="0" width="1" height="24" rx="2"></rect>
                        <rect id="Rectangle-165-Copy-11" fill="#FFFFFF" x="316" y="0" width="1" height="24" rx="2"></rect>
                        <rect id="Rectangle-165-Copy-26" fill="#FFFFFF" x="329" y="0" width="1" height="24" rx="2"></rect>
                        <rect id="Rectangle-165-Copy-12" fill="#FFFFFF" x="342" y="0" width="1" height="24" rx="2"></rect>
                    </g>
                    <g id="1-copy-2" transform="translate(2.000000, 119.000000)">
                        <rect id="Rectangle-165" fill="#FFFFFF" x="28" y="0" width="1" height="24" rx="2"></rect>
                        <rect id="Rectangle-165-Copy-13" fill="#FFFFFF" x="15" y="0" width="1" height="24" rx="2"></rect>
                        <rect id="Rectangle-164" stroke="#FFFFFF" stroke-width="2" x="0" y="0" width="340" height="24"></rect>
                        <rect id="Rectangle-165-Copy-14" fill="#FFFFFF" transform="translate(170.000000, 11.500000) scale(1, -1) translate(-170.000000, -11.500000) " x="0" y="10.75" width="340" height="1.5" rx="2"></rect>
                        <rect id="Rectangle-165-Copy" fill="#FFFFFF" x="54" y="0" width="1" height="24" rx="2"></rect>
                        <rect id="Rectangle-165-Copy-15" fill="#FFFFFF" x="41" y="0" width="1" height="24" rx="2"></rect>
                        <rect id="Rectangle-165-Copy-2" fill="#FFFFFF" x="80" y="0" width="1" height="24" rx="2"></rect>
                        <rect id="Rectangle-165-Copy-16" fill="#FFFFFF" x="67" y="0" width="1" height="24" rx="2"></rect>
                        <rect id="Rectangle-165-Copy-3" fill="#FFFFFF" x="106" y="0" width="1" height="24" rx="2"></rect>
                        <rect id="Rectangle-165-Copy-17" fill="#FFFFFF" x="93" y="0" width="1" height="24" rx="2"></rect>
                        <rect id="Rectangle-165-Copy-4" fill="#FFFFFF" x="132" y="0" width="1" height="24" rx="2"></rect>
                        <rect id="Rectangle-165-Copy-18" fill="#FFFFFF" x="119" y="0" width="1" height="24" rx="2"></rect>
                        <rect id="Rectangle-165-Copy-5" fill="#FFFFFF" x="158" y="0" width="1" height="24" rx="2"></rect>
                        <rect id="Rectangle-165-Copy-19" fill="#FFFFFF" x="145" y="0" width="1" height="24" rx="2"></rect>
                        <rect id="Rectangle-165-Copy-6" fill="#FFFFFF" x="184" y="0" width="1" height="24" rx="2"></rect>
                        <rect id="Rectangle-165-Copy-20" fill="#FFFFFF" x="171" y="0" width="1" height="24" rx="2"></rect>
                        <rect id="Rectangle-165-Copy-7" fill="#FFFFFF" x="210" y="0" width="1" height="24" rx="2"></rect>
                        <rect id="Rectangle-165-Copy-22" fill="#FFFFFF" x="223" y="0" width="1" height="24" rx="2"></rect>
                        <rect id="Rectangle-165-Copy-21" fill="#FFFFFF" x="197" y="0" width="1" height="24" rx="2"></rect>
                        <rect id="Rectangle-165-Copy-8" fill="#FFFFFF" x="236" y="0" width="1" height="24" rx="2"></rect>
                        <rect id="Rectangle-165-Copy-23" fill="#FFFFFF" x="249" y="0" width="1" height="24" rx="2"></rect>
                        <rect id="Rectangle-165-Copy-9" fill="#FFFFFF" x="262" y="0" width="1" height="24" rx="2"></rect>
                        <rect id="Rectangle-165-Copy-24" fill="#FFFFFF" x="275" y="0" width="1" height="24" rx="2"></rect>
                        <rect id="Rectangle-165-Copy-10" fill="#FFFFFF" x="288" y="0" width="1" height="24" rx="2"></rect>
                        <rect id="Rectangle-165-Copy-25" fill="#FFFFFF" x="301" y="0" width="1" height="24" rx="2"></rect>
                        <rect id="Rectangle-165-Copy-11" fill="#FFFFFF" x="314" y="0" width="1" height="24" rx="2"></rect>
                        <rect id="Rectangle-165-Copy-26" fill="#FFFFFF" x="327" y="0" width="1" height="24" rx="2"></rect>
                        <rect id="Rectangle-165-Copy-12" fill="#FFFFFF" x="340" y="0" width="1" height="24" rx="2"></rect>
                    </g>
                    <g id="1-copy-3" transform="translate(1.000000, 75.000000)">
                        <rect id="Rectangle-165" fill="#FFFFFF" x="28" y="0" width="1" height="24" rx="2"></rect>
                        <rect id="Rectangle-165-Copy-13" fill="#FFFFFF" x="15" y="0" width="1" height="24" rx="2"></rect>
                        <rect id="Rectangle-164" stroke="#FFFFFF" stroke-width="2" x="1" y="0" width="340" height="24"></rect>
                        <rect id="Rectangle-165-Copy-50" fill="#FFFFFF" transform="translate(171.000000, 11.500000) scale(1, -1) translate(-171.000000, -11.500000) " x="0" y="11" width="342" height="1" rx="2"></rect>
                        <rect id="Rectangle-165-Copy" fill="#FFFFFF" x="54" y="0" width="1" height="24" rx="2"></rect>
                        <rect id="Rectangle-165-Copy-15" fill="#FFFFFF" x="41" y="0" width="1" height="24" rx="2"></rect>
                        <rect id="Rectangle-165-Copy-2" fill="#FFFFFF" x="80" y="0" width="1" height="24" rx="2"></rect>
                        <rect id="Rectangle-165-Copy-16" fill="#FFFFFF" x="67" y="0" width="1" height="24" rx="2"></rect>
                        <rect id="Rectangle-165-Copy-3" fill="#FFFFFF" x="106" y="0" width="1" height="24" rx="2"></rect>
                        <rect id="Rectangle-165-Copy-17" fill="#FFFFFF" x="93" y="0" width="1" height="24" rx="2"></rect>
                        <rect id="Rectangle-165-Copy-4" fill="#FFFFFF" x="132" y="0" width="1" height="24" rx="2"></rect>
                        <rect id="Rectangle-165-Copy-18" fill="#FFFFFF" x="119" y="0" width="1" height="24" rx="2"></rect>
                        <rect id="Rectangle-165-Copy-5" fill="#FFFFFF" x="158" y="0" width="1" height="24" rx="2"></rect>
                        <rect id="Rectangle-165-Copy-19" fill="#FFFFFF" x="145" y="0" width="1" height="24" rx="2"></rect>
                        <rect id="Rectangle-165-Copy-6" fill="#FFFFFF" x="185" y="0" width="1" height="24" rx="2"></rect>
                        <rect id="Rectangle-165-Copy-20" fill="#FFFFFF" x="171" y="0" width="1" height="24" rx="2"></rect>
                        <rect id="Rectangle-165-Copy-7" fill="#FFFFFF" x="211" y="0" width="1" height="24" rx="2"></rect>
                        <rect id="Rectangle-165-Copy-22" fill="#FFFFFF" x="224" y="0" width="1" height="24" rx="2"></rect>
                        <rect id="Rectangle-165-Copy-21" fill="#FFFFFF" x="198" y="0" width="1" height="24" rx="2"></rect>
                        <rect id="Rectangle-165-Copy-8" fill="#FFFFFF" x="237" y="0" width="1" height="24" rx="2"></rect>
                        <rect id="Rectangle-165-Copy-23" fill="#FFFFFF" x="250" y="0" width="1" height="24" rx="2"></rect>
                        <rect id="Rectangle-165-Copy-9" fill="#FFFFFF" x="263" y="0" width="1" height="24" rx="2"></rect>
                        <rect id="Rectangle-165-Copy-24" fill="#FFFFFF" x="276" y="0" width="1" height="24" rx="2"></rect>
                        <rect id="Rectangle-165-Copy-10" fill="#FFFFFF" x="289" y="0" width="1" height="24" rx="2"></rect>
                        <rect id="Rectangle-165-Copy-25" fill="#FFFFFF" x="302" y="0" width="1" height="24" rx="2"></rect>
                        <rect id="Rectangle-165-Copy-11" fill="#FFFFFF" x="315" y="0" width="1" height="24" rx="2"></rect>
                        <rect id="Rectangle-165-Copy-26" fill="#FFFFFF" x="328" y="0" width="1" height="24" rx="2"></rect>
                        <rect id="Rectangle-165-Copy-12" fill="#FFFFFF" x="341" y="0" width="1" height="24" rx="2"></rect>
                    </g>
                </g>
            </g>
        </g>
    </g>
</svg>