<?xml version="1.0" encoding="UTF-8" standalone="no"?>
<svg width="37px" height="39px" viewBox="0 0 37 39" version="1.1" xmlns="http://www.w3.org/2000/svg" xmlns:xlink="http://www.w3.org/1999/xlink" xmlns:sketch="http://www.bohemiancoding.com/sketch/ns">
    <!-- Generator: bin/sketchtool 1.4 (305) - http://www.bohemiancoding.com/sketch -->
    <title>Shape</title>
    <desc>Created with bin/sketchtool.</desc>
    <defs></defs>
    <g id="Page-1" stroke="none" stroke-width="1" fill="none" fill-rule="evenodd" sketch:type="MSPage">
        <g id="Desktop-HD" sketch:type="MSArtboardGroup" transform="translate(-1384.000000, -20.000000)" stroke="#fff" fill="#fff" opacity="0.7">
            <g id="Front" sketch:type="MSLayerGroup">
                <path d="M1416.09372,47.8472506 L1410.15176,46.3649072 C1410.12959,46.3314501 1410.10523,46.2992111 1410.07616,46.2701392 L1408.30626,44.4995128 L1408.30626,42.8045708 C1408.45357,42.654826 1408.5978,42.4993968 1408.73812,42.3373898 C1410.38954,40.4302552 1411.38245,37.8609629 1411.53406,35.1027842 C1411.54015,34.9920998 1411.54575,34.8816589 1411.55128,34.7712993 C1411.56971,34.4063573 1411.58709,34.0617169 1411.62193,33.7139095 L1412.20791,27.8534803 C1412.389,26.042007 1411.79238,24.2290719 1410.57087,22.8792575 C1409.34936,21.5293619 1407.60456,20.7552204 1405.78407,20.7552204 L1399.21593,20.7552204 C1397.39544,20.7552204 1395.65072,21.5293619 1394.42913,22.8791763 C1393.20754,24.2289907 1392.61092,26.0420882 1392.79201,27.8534803 L1393.37759,33.7099304 C1393.41251,34.0590371 1393.43013,34.4066009 1393.44872,34.7746288 C1393.45425,34.8840139 1393.45977,34.9933991 1393.46578,35.1027842 C1393.61739,37.8609629 1394.6103,40.4302552 1396.26172,42.3373898 C1396.40196,42.4993968 1396.54626,42.6547448 1396.69357,42.8045708 L1396.69357,44.4995128 L1394.9236,46.270058 C1394.89526,46.2983991 1394.87138,46.3296636 1394.84962,46.3621462 L1388.90595,47.8473318 C1386.38717,48.477007 1385,50.022935 1385,52.2003248 L1385,56.4454756 C1385,57.4977494 1385.85608,58.3538283 1386.90835,58.3538283 L1418.09165,58.3538283 C1419.14392,58.3538283 1420,57.4977494 1420,56.4454756 L1420,52.2002436 C1420,50.022935 1418.61283,48.477007 1416.09372,47.8472506 L1416.09372,47.8472506 Z M1401.85035,54.4559165 L1403.14965,54.4559165 C1403.19497,54.4559165 1403.23971,54.4537239 1403.28429,54.4506381 L1403.74132,57.1357309 L1401.25868,57.1357309 L1401.71571,54.4506381 C1401.76029,54.4537239 1401.80503,54.4559165 1401.85035,54.4559165 L1401.85035,54.4559165 Z M1403.83991,52.5475638 C1403.83991,52.9281787 1403.53027,53.237819 1403.14965,53.237819 L1401.85035,53.237819 C1401.46973,53.237819 1401.16009,52.9281787 1401.16009,52.5475638 L1401.16009,51.5742227 L1402.5,50.6809513 L1403.83991,51.5742227 L1403.83991,52.5475638 L1403.83991,52.5475638 Z M1397.91183,43.8488863 C1399.28958,44.8337587 1400.86548,45.3607889 1402.5,45.3607889 C1404.13452,45.3607889 1405.71042,44.8337587 1407.08817,43.8488863 L1407.08817,44.4995128 L1402.5,49.0876798 L1397.91183,44.4995128 L1397.91183,43.8488863 L1397.91183,43.8488863 Z M1404.79027,50.7438051 C1404.78962,50.7433991 1404.78897,50.742993 1404.78832,50.7425058 L1403.45596,49.8542691 L1407.69713,45.6130974 L1408.89103,46.8074014 C1408.48817,47.5342807 1407.54203,49.2370186 1406.20618,51.6391879 C1406.20367,51.6437355 1406.19839,51.6531555 1406.18345,51.6568097 C1406.16623,51.6610325 1406.15389,51.6528306 1406.14983,51.6501508 L1404.79027,50.7438051 L1404.79027,50.7438051 Z M1395.33231,23.6965197 C1396.32335,22.6013689 1397.73894,21.9733179 1399.21593,21.9733179 L1405.78407,21.9733179 C1407.26114,21.9733179 1408.67665,22.6013689 1409.66777,23.6965197 C1410.65882,24.7915893 1411.14289,26.2625638 1410.9959,27.7321578 L1410.62503,31.4406961 C1409.80209,29.4795592 1408.8916,28.2233759 1408.838,28.1502088 C1408.64392,27.8853944 1408.27459,27.8222158 1408.00353,28.0073666 C1406.40295,29.1000812 1399.2744,29.2391879 1396.66215,29.2006961 C1396.48593,29.1973666 1396.3171,29.2719142 1396.19951,29.4033063 C1395.45314,30.2364037 1394.86594,31.1731206 1394.43035,31.9945244 L1394.00418,27.732239 C1393.85711,26.262645 1394.34126,24.7916705 1395.33231,23.6965197 L1395.33231,23.6965197 Z M1394.68217,35.0359513 C1394.67624,34.9282715 1394.6708,34.8206729 1394.66536,34.712993 C1394.66162,34.6385267 1394.65773,34.5631671 1394.65375,34.4877262 C1394.78498,34.1151508 1395.54629,32.0616821 1396.92794,30.4219606 C1398.61321,30.4367401 1405.49652,30.4256961 1408.14385,29.302935 C1408.66585,30.1263689 1409.76636,32.0539675 1410.3469,34.4737587 C1410.34268,34.5528538 1410.3387,34.6317865 1410.33472,34.709826 C1410.3292,34.8183991 1410.32376,34.9270534 1410.31775,35.0359513 C1410.0371,40.1425406 1406.60312,44.1426914 1402.5,44.1426914 C1398.39688,44.1426914 1394.9629,40.1425406 1394.68217,35.0359513 L1394.68217,35.0359513 Z M1397.30287,45.6130974 L1401.54404,49.8542691 L1400.21144,50.7426682 C1400.21095,50.742993 1400.21038,50.7433991 1400.2099,50.7437239 L1398.85017,51.650232 C1398.84619,51.652993 1398.83385,51.6611137 1398.81655,51.656891 C1398.80161,51.6533179 1398.79633,51.6438167 1398.7939,51.6393503 C1397.45805,49.2370998 1396.51191,47.5343619 1396.10905,46.8074826 L1397.30287,45.6130974 L1397.30287,45.6130974 Z M1386.2181,56.4454756 L1386.2181,52.2003248 C1386.2181,50.5908933 1387.22181,49.5239211 1389.2013,49.0290487 L1395.12718,47.5484919 C1395.47832,48.1825522 1396.20642,49.4927378 1397.72936,52.2313457 C1397.89908,52.5365197 1398.19094,52.7587007 1398.5299,52.8407193 C1398.62702,52.8642691 1398.72585,52.8758005 1398.82443,52.8758005 C1399.07162,52.8758005 1399.31679,52.8030394 1399.52589,52.6636891 L1399.94208,52.3862065 L1399.94208,52.5474826 C1399.94208,53.1047216 1400.1822,53.6068213 1400.56436,53.9560905 L1400.02312,57.1357309 L1392.06497,57.1357309 L1392.06497,53.8468677 C1392.06497,53.5105104 1391.79227,53.237819 1391.45592,53.237819 C1391.11956,53.237819 1390.84687,53.5105104 1390.84687,53.8468677 L1390.84687,57.1357309 L1386.90835,57.1357309 C1386.52774,57.1357309 1386.2181,56.8260905 1386.2181,56.4454756 L1386.2181,56.4454756 Z M1418.7819,56.4454756 C1418.7819,56.8260905 1418.47226,57.1357309 1418.09165,57.1357309 L1414.15313,57.1357309 L1414.15313,53.8468677 C1414.15313,53.5105104 1413.88044,53.237819 1413.54408,53.237819 C1413.20773,53.237819 1412.93503,53.5105104 1412.93503,53.8468677 L1412.93503,57.1357309 L1404.97688,57.1357309 L1404.43564,53.9561717 C1404.8178,53.6069838 1405.05792,53.1048028 1405.05792,52.5475638 L1405.05792,52.3862877 L1405.47411,52.6637703 C1405.68321,52.8032019 1405.92838,52.8758817 1406.17557,52.8758817 C1406.27415,52.8758817 1406.37306,52.8642691 1406.4701,52.8408005 C1406.80906,52.7587007 1407.10092,52.5366009 1407.27064,52.2313457 C1408.79196,49.49558 1409.52014,48.1853132 1409.87168,47.5504408 L1415.79854,49.0290487 C1417.77819,49.5239211 1418.7819,50.5908933 1418.7819,52.2002436 L1418.7819,56.4454756 L1418.7819,56.4454756 Z" id="Shape" sketch:type="MSShapeGroup"></path>
            </g>
        </g>
    </g>
</svg>
