<?xml version="1.0" encoding="UTF-8" standalone="no"?>
<svg width="30px" height="37px" viewBox="0 0 30 37" version="1.1" xmlns="http://www.w3.org/2000/svg" xmlns:xlink="http://www.w3.org/1999/xlink" xmlns:sketch="http://www.bohemiancoding.com/sketch/ns">
    <!-- Generator: bin/sketchtool 1.4 (305) - http://www.bohemiancoding.com/sketch -->
    <title>Trash</title>
    <desc>Created with bin/sketchtool.</desc>
    <defs></defs>
    <g id="Page-1" stroke="none" stroke-width="1" fill="none" fill-rule="evenodd" sketch:type="MSPage">
        <g id="CMS" sketch:type="MSArtboardGroup" transform="translate(-672.000000, -310.000000)" fill="#3357A1">
            <g id="Blocks" sketch:type="MSLayerGroup" transform="translate(150.000000, 205.000000)">
                <g id="Block-1" transform="translate(0.000000, 39.000000)" sketch:type="MSShapeGroup">
                    <g id="Trash" transform="translate(522.000000, 66.000000)">
                        <g id="Group" transform="translate(0.863579, 0.000000)">
                            <path d="M27.6988423,6.83607635 C27.2290363,6.32750313 26.5561952,6.03444931 25.8511577,6.03444931 L20.6530663,6.03444931 C20.04199,3.03229036 17.3815081,0.765394243 14.2012829,0.765394243 C11.0210576,0.765394243 8.35991865,3.03163329 7.74949937,6.03444931 L2.55272215,6.03444931 C1.84899875,6.03444931 1.1761577,6.32618899 0.70635169,6.8347622 C0.243116395,7.33676471 0.00657071339,8.01880476 0.0532227785,8.7100438 L0.219461827,12.7030663 C0.248372966,13.4067897 0.827909887,13.9626721 1.53229036,13.9626721 L2.06451815,13.9626721 L3.57578223,33.9179287 C3.67631414,35.3312891 4.87086984,36.4437109 6.29408636,36.4437109 L22.1097935,36.4437109 C23.53301,36.4437109 24.7269086,35.3319462 24.8287547,33.912015 L26.3406758,13.9626721 L26.8729036,13.9626721 C27.5772841,13.9626721 28.156821,13.4067897 28.1857322,12.7030663 L28.3506571,8.71135795 C28.3973091,8.01946183 28.1607635,7.33742178 27.6988423,6.83607635 L27.6988423,6.83607635 Z M22.1091364,34.8003755 L6.29342929,34.8003755 C5.74674593,34.8003755 5.25197121,34.3397685 5.21320401,33.7937422 L3.63688986,12.976408 L24.7656758,12.976408 L23.1893617,33.7950563 C23.1505945,34.3397685 22.6558198,34.8003755 22.1091364,34.8003755 L22.1091364,34.8003755 Z M1.84768461,12.3193367 L1.69327284,8.60819775 C1.6735607,8.35851064 1.75175219,8.12459324 1.91404881,7.94915519 C2.07568836,7.77371715 2.30303504,7.67712766 2.55337922,7.67712766 L25.8524718,7.67712766 C26.102816,7.67712766 26.3301627,7.77371715 26.4918023,7.94915519 C26.6534418,8.12525031 26.7309762,8.35851064 26.7099499,8.6206821 L26.5581665,12.3193367 L1.84768461,12.3193367 L1.84768461,12.3193367 Z M14.2012829,2.40807259 C16.8151126,2.40807259 18.955194,4.44893617 19.1253755,7.02005632 L9.27719024,7.02005632 C9.44737171,4.44959324 11.5881101,2.40807259 14.2012829,2.40807259 L14.2012829,2.40807259 Z" id="Shape"></path>
                            <path d="M7.5241239,15.8359825 L8.39145807,31.6484043 L9.04918648,31.6484043 L8.18185232,15.8359825 L7.5241239,15.8359825 Z" id="Shape"></path>
                            <rect id="Rectangle" x="13.7984981" y="15.9949937" width="0.657071339" height="15.8124218"></rect>
                            <path d="M19.3533792,31.6484043 L20.0117647,31.6484043 L20.8784418,15.8359825 L20.2207134,15.8359825 L19.3533792,31.6484043 Z" id="Shape"></path>
                        </g>
                    </g>
                </g>
            </g>
        </g>
    </g>
</svg>